<svg width="45" height="45" viewBox="0 0 45 45" fill="none" xmlns="http://www.w3.org/2000/svg">
<circle cx="22.4999" cy="22.9277" r="22" fill="#781069"/>
<path d="M25.5309 20.2697C25.5309 20.0627 25.3629 19.8957 25.1559 19.8957C24.9489 19.8967 24.7809 20.0647 24.7809 20.2717C24.7809 20.4787 24.9489 20.6467 25.1559 20.6457C25.3629 20.6457 25.5309 20.4777 25.5309 20.2707" stroke="white" stroke-width="1.5" stroke-linecap="round" stroke-linejoin="round"/>
<path fill-rule="evenodd" clip-rule="evenodd" d="M22.9989 25.7127L21.9689 26.7447H20.1369V28.2137H18.6719V30.0497L17.2979 31.4277H13.9999V28.1227L19.7229 22.3867C18.9169 20.2927 19.3489 17.8307 21.0339 16.1417C23.3139 13.8567 27.0109 13.8567 29.2909 16.1417C31.5709 18.4267 31.5709 22.1317 29.2909 24.4177C27.5889 26.1217 25.1009 26.5517 22.9989 25.7127Z" stroke="white" stroke-width="1.5" stroke-linecap="round" stroke-linejoin="round"/>
</svg>
