<svg width="25" height="24" viewBox="0 0 25 24" fill="none" xmlns="http://www.w3.org/2000/svg">
<g clip-path="url(#clip0_1078_4456)">
<path d="M23.5077 10.8474V18.6658C23.5077 21.7252 20.9916 24.2181 17.9037 24.2181H8.5257C5.43781 24.2181 2.92175 21.7252 2.92175 18.6658V10.8474H23.5077ZM11.9567 19.7989L16.2111 17.4647C16.4856 17.3061 16.6457 17.0342 16.6457 16.7169C16.6457 16.3996 16.4856 16.1277 16.2111 15.969L11.9567 13.6802C11.5907 13.4762 11.1104 13.5669 10.8359 13.9521C10.7444 14.0881 10.6987 14.2694 10.6987 14.4507V19.0511C10.6987 19.2551 10.7673 19.459 10.9045 19.6176C11.0875 19.8216 11.3162 19.9123 11.545 19.9123C11.6822 19.9123 11.8194 19.8669 11.9567 19.7989Z" fill="#781069"/>
<path d="M12.4161 1.88746L16.1604 1.03102C19.0577 0.368294 21.9672 2.07511 22.8041 4.86073L18.7256 5.79364L14.6107 3.24613L12.4161 1.88746Z" fill="#781069"/>
<path d="M9.89772 2.46352L12.0923 3.82219L16.2072 6.3697L12.8195 7.14458L8.68239 4.60216L6.51524 3.26047C6.68839 3.19761 6.8444 3.16192 7.02269 3.12114L9.89772 2.46352Z" fill="#781069"/>
<path d="M4.68776 4.2832L6.36113 5.31919L10.2788 7.72573L2.74581 9.44881C2.4216 7.45299 3.21176 5.50463 4.68776 4.2832Z" fill="#781069"/>
</g>
<defs>
<clipPath id="clip0_1078_4456">
<rect width="24" height="24" fill="white" transform="translate(0.535034)"/>
</clipPath>
</defs>
</svg>
