<svg width="25" height="24" viewBox="0 0 25 24" fill="none" xmlns="http://www.w3.org/2000/svg">
<path d="M23.0664 9.57914V17.4472C23.0664 20.526 20.5113 23.0347 17.3755 23.0347H7.85184C4.71601 23.0347 2.16089 20.526 2.16089 17.4472V9.57914H23.0664ZM17.3755 2.96539H13.4731L15.3314 4.78987L18.8156 8.21078H23.0664C22.8806 5.29161 20.3951 2.96539 17.3755 2.96539ZM12.7066 4.78987L10.8483 2.96539H7.85184C7.66601 2.96539 7.50341 2.96539 7.31758 2.9882L9.15262 4.78987L12.6601 8.21078H16.1908L12.7066 4.78987ZM6.69042 4.97232L5.27349 3.58116C3.53136 4.44778 2.30026 6.18104 2.16089 8.21078H10.0121L6.69042 4.97232ZM11.3361 18.5875L15.6566 16.2385C15.9353 16.0789 16.0979 15.8052 16.0979 15.4859C16.0979 15.1666 15.9353 14.8929 15.6566 14.7333L11.3361 12.4299C10.9644 12.2246 10.4766 12.3159 10.1979 12.7036C10.105 12.8404 10.0585 13.0228 10.0585 13.2053V17.8349C10.0585 18.0402 10.1282 18.2454 10.2676 18.4051C10.4534 18.6103 10.6857 18.7015 10.918 18.7015C11.0573 18.7015 11.1967 18.6559 11.3361 18.5875Z" stroke="#BCA1B8" stroke-width="1.4"/>
</svg>
