<svg width="45" height="45" viewBox="0 0 45 45" fill="none" xmlns="http://www.w3.org/2000/svg">
<circle cx="22.4999" cy="22.9277" r="22" fill="#781069"/>
<path d="M29.4999 18.9277H15.4999C14.3953 18.9277 13.4999 19.8232 13.4999 20.9277V28.9277C13.4999 30.0323 14.3953 30.9277 15.4999 30.9277H29.4999C30.6044 30.9277 31.4999 30.0323 31.4999 28.9277V20.9277C31.4999 19.8232 30.6044 18.9277 29.4999 18.9277Z" stroke="white" stroke-width="2" stroke-linecap="round" stroke-linejoin="round"/>
<path d="M22.4999 24.9277C23.0522 24.9277 23.4999 24.48 23.4999 23.9277C23.4999 23.3754 23.0522 22.9277 22.4999 22.9277C21.9476 22.9277 21.4999 23.3754 21.4999 23.9277C21.4999 24.48 21.9476 24.9277 22.4999 24.9277Z" fill="white"/>
<path d="M13.4999 26.9277H31.4999M19.4999 18.9277C19.4999 17.9277 19.4999 14.9277 22.4999 14.9277C25.4999 14.9277 25.4999 17.9277 25.4999 18.9277" stroke="white" stroke-width="2"/>
</svg>
