<svg width="25" height="24" viewBox="0 0 25 24" fill="none" xmlns="http://www.w3.org/2000/svg">
<path d="M18.515 11.3184V15.1584C18.515 15.408 18.505 15.648 18.475 15.8784C18.245 18.4704 16.655 19.7568 13.725 19.7568H13.325C13.075 19.7568 12.835 19.872 12.685 20.064L11.485 21.6C10.955 22.2816 10.095 22.2816 9.56503 21.6L8.36502 20.064C8.23502 19.9008 7.94504 19.7568 7.72504 19.7568H7.32504C4.13504 19.7568 2.53503 18.9984 2.53503 15.1584V11.3184C2.53503 8.50558 3.88504 6.97918 6.57504 6.75838C6.81504 6.72958 7.06504 6.71997 7.32504 6.71997H13.725C16.915 6.71997 18.515 8.25598 18.515 11.3184Z" fill="#781069" stroke="white" stroke-width="0.5" stroke-miterlimit="10" stroke-linecap="round" stroke-linejoin="round"/>
<path d="M22.2651 7.47829V11.3183C22.2651 12.692 21.9366 13.7092 21.3168 14.408C20.7466 15.0509 19.902 15.4555 18.7525 15.5985C18.7616 15.4535 18.7651 15.3066 18.7651 15.1583V11.3183C18.7651 9.74569 18.3537 8.52002 17.4895 7.69034C16.6271 6.86248 15.3563 6.46988 13.7251 6.46988H7.32507C7.16738 6.46988 7.01142 6.47333 6.8577 6.48249C7.00764 5.39254 7.42777 4.58946 8.09565 4.04437C8.82776 3.44685 9.89338 3.12988 11.3251 3.12988H17.7251C19.2838 3.12988 20.408 3.50529 21.1432 4.21103C21.8764 4.91496 22.2651 5.98849 22.2651 7.47829Z" fill="#781069" stroke="white" stroke-width="0.5" stroke-miterlimit="10" stroke-linecap="round" stroke-linejoin="round"/>
<path fill-rule="evenodd" clip-rule="evenodd" d="M14.0305 13.68H14.0395H14.0305Z" fill="#781069"/>
<path d="M14.0305 13.68H14.0395" stroke="white" stroke-width="2" stroke-linecap="round" stroke-linejoin="round"/>
<path fill-rule="evenodd" clip-rule="evenodd" d="M10.5305 13.68H10.5395H10.5305Z" fill="#781069"/>
<path d="M10.5305 13.68H10.5395" stroke="white" stroke-width="2" stroke-linecap="round" stroke-linejoin="round"/>
<path fill-rule="evenodd" clip-rule="evenodd" d="M7.03053 13.68H7.03953H7.03053Z" fill="#781069"/>
<path d="M7.03053 13.68H7.03953" stroke="white" stroke-width="2" stroke-linecap="round" stroke-linejoin="round"/>
<path d="M24.285 3.84C24.285 5.81318 22.6158 7.43 20.535 7.43C18.4542 7.43 16.785 5.81318 16.785 3.84C16.785 1.86682 18.4542 0.25 20.535 0.25C22.6158 0.25 24.285 1.86682 24.285 3.84Z" fill="#FF4B4B" stroke="white" stroke-width="0.5"/>
</svg>
