<svg width="45" height="44" viewBox="0 0 45 44" fill="none" xmlns="http://www.w3.org/2000/svg">
<circle cx="22.6135" cy="22" r="22" fill="#781069"/>
<path d="M33.0664 19.5791V27.4472C33.0664 30.526 30.5113 33.0347 27.3755 33.0347H17.8518C14.716 33.0347 12.1609 30.526 12.1609 27.4472V19.5791H33.0664ZM27.3755 12.9654H23.4731L25.3314 14.7899L28.8156 18.2108H33.0664C32.8806 15.2916 30.3951 12.9654 27.3755 12.9654ZM22.7066 14.7899L20.8483 12.9654H17.8518C17.666 12.9654 17.5034 12.9654 17.3176 12.9882L19.1526 14.7899L22.6601 18.2108H26.1908L22.7066 14.7899ZM16.6904 14.9723L15.2735 13.5812C13.5314 14.4478 12.3003 16.181 12.1609 18.2108H20.0121L16.6904 14.9723ZM21.3361 28.5875L25.6566 26.2385C25.9353 26.0789 26.0979 25.8052 26.0979 25.4859C26.0979 25.1666 25.9353 24.8929 25.6566 24.7333L21.3361 22.4299C20.9644 22.2246 20.4766 22.3159 20.1979 22.7036C20.105 22.8404 20.0585 23.0228 20.0585 23.2053V27.8349C20.0585 28.0402 20.1282 28.2454 20.2676 28.4051C20.4534 28.6103 20.6857 28.7015 20.918 28.7015C21.0573 28.7015 21.1967 28.6559 21.3361 28.5875Z" stroke="white" stroke-width="1.4"/>
</svg>
