<svg width="45" height="44" viewBox="0 0 45 44" fill="none" xmlns="http://www.w3.org/2000/svg">
<circle cx="22.6135" cy="22" r="22" fill="#781069"/>
<path fill-rule="evenodd" clip-rule="evenodd" d="M31.6135 29.5C31.6135 30.3284 30.942 31 30.1135 31L29.1135 31C28.2851 31 27.6135 30.3284 27.6135 29.5L27.6135 14.5C27.6135 13.6716 28.2851 13 29.1135 13L30.1135 13C30.942 13 31.6135 13.6716 31.6135 14.5L31.6135 29.5Z" stroke="white" stroke-width="1.5" stroke-linecap="round" stroke-linejoin="round"/>
<path fill-rule="evenodd" clip-rule="evenodd" d="M24.6135 29.5002C24.6135 30.3286 23.942 31.0002 23.1135 31.0002L22.1135 31.0002C21.2851 31.0002 20.6135 30.3286 20.6135 29.5002L20.6135 20.1842C20.6135 19.3558 21.2851 18.6842 22.1135 18.6842L23.1135 18.6842C23.942 18.6842 24.6135 19.3558 24.6135 20.1842L24.6135 29.5002Z" stroke="white" stroke-width="1.5" stroke-linecap="round" stroke-linejoin="round"/>
<path fill-rule="evenodd" clip-rule="evenodd" d="M17.6135 29.5004C17.6135 30.3289 16.942 31.0004 16.1135 31.0004L15.1135 31.0004C14.2851 31.0004 13.6135 30.3289 13.6135 29.5004L13.6135 25.8684C13.6135 25.04 14.2851 24.3684 15.1135 24.3684L16.1135 24.3684C16.942 24.3684 17.6135 25.04 17.6135 25.8684L17.6135 29.5004Z" stroke="white" stroke-width="1.5" stroke-linecap="round" stroke-linejoin="round"/>
</svg>
