<svg width="44" height="44" viewBox="0 0 44 44" fill="none" xmlns="http://www.w3.org/2000/svg">
<circle cx="22" cy="22" r="21.5" stroke="#781069"/>
<path d="M14 16H30M26 16V13C26 12.7348 25.8946 12.4804 25.7071 12.2929C25.5196 12.1054 25.2652 12 25 12H19C18.7348 12 18.4804 12.1054 18.2929 12.2929C18.1054 12.4804 18 12.7348 18 13V16M22 20V26M27.07 29.07L28 16H16L16.93 29.07C16.9477 29.3229 17.0609 29.5596 17.2465 29.7323C17.4322 29.9049 17.6765 30.0006 17.93 30H26.07C26.3235 30.0006 26.5678 29.9049 26.7535 29.7323C26.9391 29.5596 27.0523 29.3229 27.07 29.07Z" stroke="#781069" stroke-width="2" stroke-linecap="round" stroke-linejoin="round"/>
</svg>
