<svg width="17" height="17" viewBox="0 0 17 17" fill="none" xmlns="http://www.w3.org/2000/svg">
<path d="M6.78019 9.84267L3.60419 9.84267C3.37695 9.84266 3.15348 9.78458 2.95499 9.67392C2.75651 9.56327 2.5896 9.40372 2.47011 9.21043C2.35062 9.01713 2.28252 8.79651 2.27226 8.5695C2.26201 8.34248 2.30995 8.11662 2.41153 7.91334L4.74486 3.24667C4.85562 3.02503 5.02594 2.83863 5.23673 2.70839C5.44751 2.57815 5.69042 2.50922 5.93819 2.50934L8.61619 2.50934C8.72486 2.50934 8.83353 2.52267 8.93953 2.54934L11.4469 3.176M6.78019 9.84267L6.78019 13.176C6.78019 13.5296 6.92067 13.8688 7.17072 14.1188C7.42077 14.3689 7.7599 14.5093 8.11353 14.5093L8.17686 14.5093C8.51019 14.5093 8.78019 14.2393 8.78019 13.906C8.78019 13.43 8.92086 12.9647 9.18553 12.5687L11.4469 9.176L11.4469 3.176M6.78019 9.84267L8.11353 9.84267M11.4469 3.176L12.7802 3.176C13.1338 3.176 13.473 3.31648 13.723 3.56653C13.9731 3.81658 14.1135 4.15572 14.1135 4.50934L14.1135 8.50934C14.1135 8.86296 13.9731 9.2021 13.723 9.45215C13.473 9.7022 13.1338 9.84267 12.7802 9.84267L11.1135 9.84267" stroke="#FFFFFF" stroke-width="1" stroke-linecap="round" stroke-linejoin="round"/>
</svg>
