<svg width="25" height="25" viewBox="0 0 25 25" fill="none" xmlns="http://www.w3.org/2000/svg">
<path d="M12.1135 5.20605V5.21605V5.20605ZM12.1135 12.2061V12.2161V12.2061ZM12.1135 19.2061V19.2161V19.2061ZM12.1135 6.20605C11.8483 6.20605 11.594 6.1007 11.4064 5.91316C11.2189 5.72562 11.1135 5.47127 11.1135 5.20605C11.1135 4.94084 11.2189 4.68648 11.4064 4.49895C11.594 4.31141 11.8483 4.20605 12.1135 4.20605C12.3787 4.20605 12.6331 4.31141 12.8206 4.49895C13.0082 4.68648 13.1135 4.94084 13.1135 5.20605C13.1135 5.47127 13.0082 5.72562 12.8206 5.91316C12.6331 6.1007 12.3787 6.20605 12.1135 6.20605ZM12.1135 13.2061C11.8483 13.2061 11.594 13.1007 11.4064 12.9132C11.2189 12.7256 11.1135 12.4713 11.1135 12.2061C11.1135 11.9408 11.2189 11.6865 11.4064 11.4989C11.594 11.3114 11.8483 11.2061 12.1135 11.2061C12.3787 11.2061 12.6331 11.3114 12.8206 11.4989C13.0082 11.6865 13.1135 11.9408 13.1135 12.2061C13.1135 12.4713 13.0082 12.7256 12.8206 12.9132C12.6331 13.1007 12.3787 13.2061 12.1135 13.2061ZM12.1135 20.2061C11.8483 20.2061 11.594 20.1007 11.4064 19.9132C11.2189 19.7256 11.1135 19.4713 11.1135 19.2061C11.1135 18.9408 11.2189 18.6865 11.4064 18.4989C11.594 18.3114 11.8483 18.2061 12.1135 18.2061C12.3787 18.2061 12.6331 18.3114 12.8206 18.4989C13.0082 18.6865 13.1135 18.9408 13.1135 19.2061C13.1135 19.4713 13.0082 19.7256 12.8206 19.9132C12.6331 20.1007 12.3787 20.2061 12.1135 20.2061Z" stroke="#1D0419" stroke-width="2" stroke-linecap="round" stroke-linejoin="round"/>
</svg>
