<svg width="25" height="24" viewBox="0 0 25 24" fill="none" xmlns="http://www.w3.org/2000/svg">
<path d="M9.27358 10.87C9.17358 10.86 9.05358 10.86 8.94358 10.87C6.56358 10.79 4.67358 8.84 4.67358 6.44C4.67358 3.99 6.65358 2 9.11358 2C11.5636 2 13.5536 3.99 13.5536 6.44C13.5436 8.84 11.6536 10.79 9.27358 10.87Z" stroke="#1D0419" stroke-width="1.5" stroke-linecap="round" stroke-linejoin="round"/>
<path d="M16.5236 4C18.4636 4 20.0236 5.57 20.0236 7.5C20.0236 9.39 18.5236 10.93 16.6536 11C16.5736 10.99 16.4836 10.99 16.3936 11" stroke="#781069" stroke-width="1.5" stroke-linecap="round" stroke-linejoin="round"/>
<path fill-rule="evenodd" clip-rule="evenodd" d="M14.2785 13.6747C12.7571 12.7984 10.8675 12.3987 9.02465 12.4405C7.18247 12.4822 5.31949 12.9666 3.85904 13.9349L3.85904 13.9349L3.85628 13.9368C2.49094 14.8507 1.7085 16.1274 1.7085 17.4987C1.7085 18.8703 2.4912 20.1448 3.85732 21.0539C5.38141 22.0734 7.34979 22.56 9.2785 22.56C11.2076 22.56 13.1764 22.0732 14.7006 21.0533C15.0448 20.823 15.1372 20.3572 14.9068 20.0129C14.6765 19.6687 14.2107 19.5763 13.8664 19.8067C12.6406 20.6268 10.9794 21.06 9.2785 21.06C7.57758 21.06 5.91635 20.6268 4.69057 19.8067L4.68893 19.8056C3.6355 19.1047 3.2085 18.2544 3.2085 17.4987C3.2085 16.7429 3.63568 15.89 4.68933 15.1842C5.86485 14.4052 7.43561 13.9768 9.0586 13.9401C10.6816 13.9033 12.2892 14.2599 13.5298 14.9745C13.7644 15.1096 14.0414 15.1038 14.263 14.9833L14.5626 14.6837C14.7573 14.3272 14.6324 13.8786 14.2785 13.6747Z" fill="#1D0419"/>
<path d="M11.5312 16.746L13.3072 18.5219L16.8592 14.97" stroke="#1D0419" stroke-width="1.5" stroke-linecap="round" stroke-linejoin="round"/>
<path d="M18.4535 20C19.1735 19.85 19.8535 19.56 20.4135 19.13C21.9735 17.96 21.9735 16.03 20.4135 14.86C19.8635 14.44 19.1935 14.16 18.4835 14" stroke="#781069" stroke-width="1.5" stroke-linecap="round" stroke-linejoin="round"/>
</svg>
