<svg width="19" height="18" viewBox="0 0 19 18" fill="none" xmlns="http://www.w3.org/2000/svg">
<g clip-path="url(#clip0_333_2852)">
<path d="M9.726 6.65893C9.76818 6.64445 9.80853 6.62474 9.8462 6.60024C9.86962 6.58119 9.89066 6.55917 9.90884 6.5347C9.91829 6.52462 9.92721 6.51402 9.93556 6.50293C9.95434 6.47091 9.96839 6.43614 9.97724 6.39977C9.97955 6.39115 9.98473 6.38391 9.98643 6.3751L9.98718 6.37318C9.9867 6.32485 9.9867 6.27651 9.98718 6.22817L9.98643 6.22633C9.96886 6.15602 9.93362 6.09185 9.88433 6.04044C9.83505 5.98903 9.7735 5.95223 9.70602 5.93383L9.70346 5.93274C7.04713 5.3881 5.98513 3.99099 5.49474 0.395532C5.4937 0.388032 5.48912 0.382257 5.48754 0.374832C5.4817 0.349423 5.47326 0.324742 5.46234 0.30122C5.45471 0.280269 5.44529 0.260076 5.43419 0.240882C5.39718 0.1796 5.34135 0.133169 5.27579 0.109145C5.25457 0.098666 5.23239 0.0904613 5.20958 0.0846575C5.2021 0.083045 5.19626 0.0780574 5.1886 0.0769324C5.17174 0.076722 5.1549 0.0777874 5.1382 0.0801199C5.12141 0.0777784 5.10448 0.076713 5.08754 0.0769324C5.07988 0.0780574 5.07404 0.0830447 5.06656 0.0846947C4.99845 0.0964402 4.93623 0.132023 4.89016 0.18557C4.85478 0.215616 4.82838 0.255556 4.81405 0.300695C4.80306 0.324405 4.79461 0.349306 4.78885 0.374945C4.78738 0.382257 4.78284 0.388032 4.78165 0.395532C4.29133 3.99099 3.22926 5.38809 0.573037 5.93252L0.570733 5.93365C0.529565 5.94315 0.490326 5.96014 0.454813 5.98382C0.430615 6.00085 0.408587 6.02102 0.389257 6.04382C0.372747 6.05817 0.357539 6.07408 0.343825 6.09133C0.317611 6.13224 0.29935 6.17811 0.290077 6.22633L0.289429 6.22798C0.289861 6.27632 0.289861 6.32466 0.289429 6.373L0.289933 6.37502C0.291769 6.38458 0.297313 6.39238 0.299869 6.40172C0.308638 6.43738 0.322419 6.4715 0.340765 6.50297C0.349103 6.51411 0.358033 6.52475 0.367513 6.53485C0.385675 6.5594 0.40676 6.58145 0.430261 6.60047C0.443696 6.60974 0.457734 6.61802 0.472273 6.62526C0.496893 6.63973 0.523098 6.65106 0.550321 6.65901C0.558349 6.66126 0.564505 6.66703 0.572821 6.66876C3.22926 7.21363 4.29133 8.61073 4.78176 12.2063C4.78284 12.2143 4.7873 12.2206 4.78896 12.2284C4.79368 12.249 4.80015 12.2691 4.80829 12.2884C4.81664 12.3125 4.82739 12.3355 4.84037 12.3572C4.8658 12.3946 4.89661 12.4276 4.9317 12.4552C4.94704 12.4666 4.96324 12.4766 4.98016 12.4852C5.004 12.4974 5.0291 12.5066 5.05496 12.5129C5.06566 12.5175 5.07659 12.5215 5.08769 12.5249C5.10407 12.5274 5.1206 12.5286 5.13715 12.5287H5.1378H5.13884H5.13949C5.15603 12.5286 5.17255 12.5274 5.18892 12.5249C5.20002 12.5215 5.21095 12.5175 5.22164 12.5129C5.24752 12.5066 5.27263 12.4974 5.29649 12.4852C5.31339 12.4766 5.32959 12.4666 5.34491 12.4552C5.38 12.4276 5.41082 12.3946 5.43628 12.3572C5.44922 12.3355 5.45997 12.3125 5.46835 12.2884C5.47646 12.2691 5.48293 12.249 5.48768 12.2284C5.48923 12.2206 5.4937 12.2143 5.49488 12.2063C5.98513 8.61073 7.04713 7.21363 9.70346 6.66872C9.71178 6.66699 9.71794 6.66122 9.726 6.65893ZM5.13823 10.2367C4.58988 8.12121 3.63851 6.94108 1.98287 6.30077C3.63851 5.66065 4.58988 4.48071 5.13823 2.36518C5.68658 4.48074 6.63792 5.66065 8.29345 6.30077C6.63792 6.94127 5.68658 8.12121 5.13823 10.2367ZM16.8577 12.9207C16.8415 12.8496 16.8066 12.7845 16.7569 12.7328C16.7073 12.6811 16.6449 12.6447 16.5766 12.6278L16.5747 12.627C14.5227 12.2066 13.7422 11.1757 13.3615 8.38551C13.3604 8.37801 13.3558 8.37201 13.3543 8.36455C13.3485 8.33957 13.3403 8.31531 13.3296 8.29217C13.3218 8.27053 13.3121 8.2497 13.3006 8.22996C13.2875 8.21154 13.2727 8.19447 13.2565 8.17896C13.2404 8.1604 13.2226 8.1436 13.2032 8.12882C13.1861 8.11822 13.1681 8.10911 13.1495 8.10159C13.1253 8.08924 13.0998 8.0799 13.0735 8.07377C13.0671 8.07246 13.062 8.06811 13.0555 8.06709C13.0392 8.06688 13.0229 8.06786 13.0067 8.07002C12.9893 8.06762 12.9718 8.06664 12.9543 8.06709C12.9471 8.06818 12.9417 8.07287 12.9346 8.07433C12.9098 8.08041 12.8856 8.08935 12.8626 8.101C12.8025 8.13087 12.75 8.17513 12.7093 8.23015C12.6977 8.25006 12.6879 8.27108 12.6801 8.29292C12.6695 8.31587 12.6613 8.33991 12.6557 8.36466C12.6542 8.37216 12.6496 8.37801 12.6485 8.38569C12.2677 11.1759 11.4869 12.2064 9.43487 12.6272L9.43199 12.6284C9.393 12.6377 9.35579 12.6538 9.32194 12.676C9.30271 12.6889 9.28477 12.7037 9.2684 12.7204C9.24407 12.7405 9.22241 12.7639 9.204 12.79C9.17882 12.8299 9.16116 12.8743 9.15198 12.9211L9.15133 12.9227C9.15176 12.971 9.15176 13.0194 9.15133 13.0677L9.15198 13.0694C9.15389 13.0793 9.15958 13.0874 9.16224 13.097C9.17098 13.1323 9.18461 13.166 9.2027 13.1972C9.23042 13.2317 9.26024 13.2642 9.29198 13.2947C9.30578 13.3042 9.32022 13.3127 9.33518 13.3201C9.35956 13.3344 9.3855 13.3456 9.41244 13.3535C9.42054 13.3558 9.42684 13.3615 9.43505 13.3633C11.487 13.784 12.2682 14.8145 12.6487 17.6047C12.6498 17.6128 12.6543 17.6192 12.6559 17.6272C12.6606 17.6475 12.6669 17.6672 12.6749 17.6863C12.6833 17.7106 12.6942 17.7339 12.7073 17.7559C12.718 17.7721 12.7299 17.7873 12.743 17.8015C12.7597 17.8209 12.7783 17.8384 12.7985 17.8537C12.8139 17.8651 12.8301 17.8751 12.847 17.8837C12.8708 17.8958 12.8958 17.9051 12.9216 17.9113C12.9324 17.9159 12.9433 17.9199 12.9544 17.9234C12.971 17.9258 12.9876 17.9271 13.0043 17.9271H13.0047H13.0054H13.0059C13.0225 17.9271 13.0392 17.9258 13.0557 17.9234C13.0668 17.9199 13.0778 17.9159 13.0885 17.9113C13.1143 17.9051 13.1394 17.8958 13.1631 17.8837C13.1801 17.8751 13.1963 17.8651 13.2117 17.8537C13.2319 17.8384 13.2505 17.8209 13.2672 17.8015C13.2803 17.7873 13.2922 17.772 13.3029 17.7559C13.316 17.7339 13.3269 17.7106 13.3353 17.6863C13.3433 17.6672 13.3496 17.6475 13.3543 17.6272C13.3559 17.6193 13.3604 17.6129 13.3615 17.6047C13.7419 14.8147 14.5227 13.784 16.5748 13.3633C16.5831 13.3615 16.5892 13.3558 16.5974 13.3535C16.6397 13.339 16.6801 13.3192 16.7178 13.2946C16.7407 13.2759 16.7614 13.2543 16.7792 13.2304C16.8156 13.1942 16.8398 13.1468 16.8483 13.0951C16.8507 13.0862 16.856 13.0788 16.8578 13.0697L16.8585 13.0678C16.858 13.0194 16.858 12.9711 16.8585 12.9227L16.8577 12.9207ZM13.0051 15.78C12.5807 14.3583 11.8857 13.4925 10.7642 12.9951C11.8857 12.4975 12.5807 11.6319 13.0052 10.2101C13.4296 11.6319 14.1244 12.4976 15.2459 12.9951C14.1241 13.4925 13.4294 14.3581 13.0051 15.78ZM17.9276 3.86676C17.93 3.85787 17.9353 3.85041 17.937 3.8413L17.9377 3.83938C17.94 3.81526 17.9399 3.79096 17.9374 3.76686C17.9399 3.74277 17.94 3.71848 17.9377 3.69437L17.937 3.69253C17.9281 3.65135 17.9125 3.61204 17.8909 3.57628C17.8679 3.53627 17.8379 3.50118 17.8023 3.47289C17.7932 3.46539 17.7853 3.4579 17.7756 3.45137C17.7393 3.42696 17.699 3.40958 17.6568 3.40007L17.6539 3.39883C16.3443 3.13041 15.8451 2.46643 15.5994 0.66617C15.5983 0.65867 15.5937 0.652707 15.5922 0.645245C15.5864 0.620073 15.5781 0.595619 15.5673 0.572307C15.5522 0.528448 15.528 0.488589 15.4965 0.455571C15.465 0.422553 15.4268 0.397188 15.3848 0.381282C15.3617 0.369584 15.3374 0.360603 15.3123 0.354507C15.3056 0.353157 15.3003 0.348545 15.2934 0.34757C15.2598 0.351575 15.2258 0.351575 15.1922 0.34757C15.1847 0.348657 15.1789 0.353607 15.1716 0.35507C15.1267 0.368794 15.0834 0.387658 15.0424 0.41132C15.0253 0.424806 15.0094 0.439866 14.9948 0.45632C14.977 0.473011 14.9608 0.491571 14.9466 0.511707C14.9355 0.530876 14.9261 0.551059 14.9185 0.572007C14.9076 0.595431 14.8991 0.620026 14.8933 0.645357C14.8918 0.652857 14.8872 0.658632 14.8861 0.666245C14.6407 2.46651 14.1415 3.13048 12.8316 3.39891L12.8298 3.39962C12.7617 3.41686 12.6993 3.45331 12.6497 3.50499C12.6001 3.55667 12.5651 3.62158 12.5486 3.69261L12.5479 3.69445C12.5456 3.71856 12.5457 3.74285 12.5482 3.76693C12.5457 3.79103 12.5456 3.81533 12.5479 3.83946L12.5486 3.84137C12.5503 3.85033 12.5556 3.85776 12.5579 3.86653C12.5814 3.94528 12.6269 4.01492 12.6887 4.06652C12.7265 4.09106 12.7671 4.11071 12.8095 4.12502C12.8175 4.12723 12.8237 4.13308 12.832 4.13477C14.1419 4.40319 14.6412 5.06713 14.8865 6.86781C14.8876 6.87591 14.8922 6.88228 14.8937 6.89031C14.8984 6.91052 14.9048 6.93028 14.9128 6.94933C14.9212 6.97366 14.932 6.997 14.9452 7.01893C14.9559 7.03512 14.9678 7.05037 14.9808 7.06453C14.9975 7.08394 15.0161 7.10144 15.0364 7.11673C15.0517 7.1281 15.068 7.13814 15.0849 7.14673C15.1087 7.15884 15.1337 7.16809 15.1595 7.17429C15.1702 7.17892 15.1812 7.18298 15.1923 7.18644C15.2088 7.18885 15.2255 7.19004 15.2422 7.19001H15.2426H15.2433H15.2437C15.2604 7.19004 15.2771 7.18885 15.2936 7.18644C15.3294 7.17319 15.3652 7.15995 15.401 7.14673C15.4179 7.13814 15.4342 7.12811 15.4495 7.11673C15.4845 7.08915 15.5153 7.05617 15.5408 7.01893C15.5539 6.99698 15.5647 6.97365 15.5732 6.94933C15.5811 6.93027 15.5875 6.91052 15.5922 6.89031C15.5937 6.88236 15.5983 6.87598 15.5994 6.86781C15.8451 5.06713 16.3443 4.40319 17.6539 4.13477C17.6623 4.13301 17.6683 4.12727 17.6765 4.12494C17.7034 4.11712 17.7292 4.10599 17.7535 4.09179C17.7968 4.07013 17.8348 4.03869 17.8649 3.99977C17.895 3.96084 17.9165 3.91538 17.9276 3.86676ZM15.2431 5.25167C15.0306 4.61545 14.5966 4.0855 14.027 3.76667C14.5966 3.44793 15.0306 2.9181 15.2431 2.28201C15.4557 2.91808 15.8897 3.44789 16.4593 3.76667C15.8897 4.08553 15.4557 4.61547 15.2431 5.25167Z" fill="white" stroke="white" stroke-width="0.4"/>
</g>
<defs>
<clipPath id="clip0_333_2852">
<rect width="18" height="18" fill="white" transform="translate(0.113525)"/>
</clipPath>
</defs>
</svg>
