<svg width="17" height="16" viewBox="0 0 17 16" fill="none" xmlns="http://www.w3.org/2000/svg">
<path d="M8.06027 1.14282C9.30432 1.14282 10.4516 1.44937 11.5022 2.06247C12.5528 2.67556 13.3847 3.50741 13.9978 4.558C14.6109 5.6086 14.9174 6.75592 14.9174 7.99997C14.9174 9.24401 14.6109 10.3913 13.9978 11.4419C13.3847 12.4925 12.5528 13.3244 11.5022 13.9375C10.4516 14.5506 9.30432 14.8571 8.06027 14.8571C6.81622 14.8571 5.6689 14.5506 4.6183 13.9375C3.56771 13.3244 2.73586 12.4925 2.12277 11.4419C1.50967 10.3913 1.20312 9.24401 1.20312 7.99997C1.20312 6.75592 1.50967 5.6086 2.12277 4.558C2.73586 3.50741 3.56771 2.67556 4.6183 2.06247C5.6689 1.44937 6.81622 1.14282 8.06027 1.14282ZM10.5067 5.79461C10.4948 5.80056 10.4665 5.82883 10.4219 5.87943C10.3772 5.93002 10.3371 5.9583 10.3013 5.96425C10.3132 5.96425 10.3266 5.94937 10.3415 5.91961C10.3564 5.88985 10.3713 5.85711 10.3862 5.82139C10.401 5.78568 10.4115 5.76485 10.4174 5.75889C10.4531 5.71723 10.5186 5.67258 10.6138 5.62497C10.6972 5.58925 10.8519 5.55354 11.0781 5.51782C11.2805 5.4702 11.4323 5.50294 11.5335 5.61604C11.5216 5.60413 11.5499 5.56544 11.6183 5.49997C11.6868 5.43449 11.7299 5.39877 11.7478 5.39282C11.7656 5.38092 11.8103 5.36752 11.8817 5.35264C11.9531 5.33776 11.9978 5.31544 12.0156 5.28568L12.0335 5.08925C11.9621 5.0952 11.91 5.07437 11.8772 5.02675C11.8445 4.97913 11.8251 4.91663 11.8192 4.83925C11.8192 4.85116 11.8013 4.87497 11.7656 4.91068C11.7656 4.86901 11.7522 4.8452 11.7254 4.83925C11.6987 4.8333 11.6644 4.83627 11.6228 4.84818C11.5811 4.86008 11.5543 4.86306 11.5424 4.85711C11.4829 4.83925 11.4382 4.81693 11.4085 4.79014C11.3787 4.76336 11.3549 4.71425 11.3371 4.64282C11.3192 4.57139 11.3073 4.52675 11.3013 4.50889C11.2894 4.47913 11.2612 4.44788 11.2165 4.41514C11.1719 4.38241 11.1436 4.35116 11.1317 4.32139C11.1257 4.30949 11.1183 4.29312 11.1094 4.27229C11.1004 4.25145 11.0915 4.23211 11.0826 4.21425C11.0737 4.19639 11.0618 4.18002 11.0469 4.16514C11.032 4.15026 11.0156 4.14282 10.9978 4.14282C10.9799 4.14282 10.9591 4.1577 10.9353 4.18747C10.9115 4.21723 10.8891 4.24699 10.8683 4.27675C10.8475 4.30651 10.8341 4.32139 10.8281 4.32139C10.8103 4.30949 10.7924 4.30502 10.7746 4.308C10.7567 4.31098 10.7433 4.31395 10.7344 4.31693C10.7254 4.31991 10.7121 4.32883 10.6942 4.34372C10.6763 4.3586 10.6615 4.36901 10.6496 4.37497C10.6317 4.38687 10.6064 4.3958 10.5737 4.40175C10.5409 4.4077 10.5156 4.41366 10.4978 4.41961C10.5871 4.38985 10.5841 4.35711 10.4888 4.32139C10.4293 4.29758 10.3817 4.28866 10.346 4.29461C10.3996 4.2708 10.4219 4.23508 10.4129 4.18747C10.404 4.13985 10.3787 4.09818 10.3371 4.06247H10.3817C10.3757 4.03866 10.3504 4.01336 10.3058 3.98657C10.2612 3.95979 10.2091 3.93449 10.1496 3.91068C10.09 3.88687 10.0513 3.86901 10.0335 3.85711C9.98586 3.82735 9.88467 3.79907 9.72991 3.77229C9.57515 3.7455 9.47693 3.74401 9.43527 3.76782C9.40551 3.80354 9.39211 3.83479 9.39509 3.86157C9.39807 3.88836 9.40997 3.93002 9.4308 3.98657C9.45164 4.04312 9.46205 4.08032 9.46205 4.09818C9.46801 4.13389 9.45164 4.17258 9.41295 4.21425C9.37426 4.25592 9.35491 4.29163 9.35491 4.32139C9.35491 4.36306 9.39658 4.40919 9.47991 4.45979C9.56324 4.51038 9.59301 4.57437 9.5692 4.65175C9.55134 4.69937 9.50372 4.74699 9.42634 4.79461C9.34896 4.84223 9.30134 4.87794 9.28348 4.90175C9.25372 4.94937 9.24926 5.00443 9.27009 5.06693C9.29092 5.12943 9.32217 5.17854 9.36384 5.21425C9.37574 5.22616 9.38021 5.23806 9.37723 5.24997C9.37426 5.26187 9.36384 5.27526 9.34598 5.29014C9.32812 5.30502 9.31176 5.31693 9.29688 5.32586C9.28199 5.33479 9.26265 5.3452 9.23884 5.35711L9.21205 5.37497C9.14658 5.40473 9.08557 5.38687 9.02902 5.32139C8.97247 5.25592 8.93229 5.17854 8.90848 5.08925C8.86682 4.94044 8.8192 4.85116 8.76563 4.82139C8.62872 4.77377 8.54241 4.77675 8.5067 4.83032C8.47693 4.75294 8.35491 4.67556 8.14063 4.59818C7.99182 4.54461 7.8192 4.5327 7.62277 4.56247C7.65848 4.55651 7.65848 4.51187 7.62277 4.42854C7.5811 4.33925 7.52455 4.30354 7.45313 4.32139C7.47098 4.28568 7.48289 4.2336 7.48884 4.16514C7.49479 4.09669 7.49777 4.05651 7.49777 4.04461C7.51563 3.96723 7.55134 3.89877 7.60491 3.83925C7.61086 3.8333 7.6317 3.808 7.66741 3.76336C7.70313 3.71872 7.7314 3.67854 7.75223 3.64282C7.77307 3.60711 7.77455 3.58925 7.7567 3.58925C7.96503 3.61306 8.11384 3.58032 8.20313 3.49104C8.23289 3.46127 8.26711 3.41068 8.3058 3.33925C8.34449 3.26782 8.37574 3.21723 8.39955 3.18747C8.45313 3.15175 8.49479 3.13538 8.52455 3.13836C8.55432 3.14133 8.59747 3.1577 8.65402 3.18747C8.71057 3.21723 8.75372 3.23211 8.78348 3.23211C8.86682 3.23806 8.91295 3.20532 8.92188 3.13389C8.9308 3.06247 8.90848 3.00294 8.85491 2.95532C8.92634 2.96127 8.93527 2.91068 8.8817 2.80354C8.85193 2.76187 8.82813 2.73508 8.81027 2.72318C8.73884 2.69937 8.65848 2.71425 8.5692 2.76782C8.52158 2.79163 8.52753 2.81544 8.58705 2.83925C8.5811 2.8333 8.55283 2.86455 8.50223 2.933C8.45164 3.00145 8.40253 3.05354 8.35491 3.08925C8.30729 3.12497 8.25967 3.11008 8.21205 3.04461C8.2061 3.03866 8.18973 2.99848 8.16295 2.92407C8.13616 2.84967 8.10789 2.80949 8.07813 2.80354C8.03051 2.80354 7.98289 2.84818 7.93527 2.93747C7.95313 2.88985 7.92039 2.8452 7.83705 2.80354C7.75372 2.76187 7.68229 2.73806 7.62277 2.73211C7.73586 2.66068 7.71205 2.58032 7.55134 2.49104C7.50967 2.46723 7.44866 2.45235 7.3683 2.44639C7.28795 2.44044 7.22991 2.45235 7.1942 2.48211C7.16443 2.52377 7.14807 2.558 7.14509 2.58479C7.14211 2.61157 7.15699 2.63538 7.18973 2.65622C7.22247 2.67705 7.25372 2.69342 7.28348 2.70532C7.31324 2.71723 7.34747 2.72913 7.38616 2.74104C7.42485 2.75294 7.45015 2.76187 7.46205 2.76782C7.54539 2.82735 7.5692 2.86901 7.53348 2.89282C7.52158 2.89877 7.49628 2.90919 7.45759 2.92407C7.4189 2.93895 7.38467 2.95235 7.35491 2.96425C7.32515 2.97616 7.30729 2.98806 7.30134 2.99997C7.28348 3.02377 7.28348 3.06544 7.30134 3.12497C7.3192 3.18449 7.31324 3.22616 7.28348 3.24997C7.25372 3.2202 7.22693 3.16812 7.20313 3.09372C7.17932 3.01931 7.15848 2.9702 7.14063 2.94639C7.18229 2.99997 7.10789 3.01782 6.91741 2.99997L6.82813 2.99104C6.80432 2.99104 6.7567 2.99699 6.68527 3.00889C6.61384 3.0208 6.55283 3.02377 6.50223 3.01782C6.45164 3.01187 6.41146 2.98806 6.3817 2.94639C6.35789 2.89877 6.35789 2.83925 6.3817 2.76782C6.38765 2.74401 6.39955 2.73806 6.41741 2.74997C6.3936 2.73211 6.36086 2.70383 6.3192 2.66514C6.27753 2.62645 6.24777 2.60116 6.22991 2.58925C5.9561 2.67854 5.67634 2.80056 5.39062 2.95532C5.42634 2.96127 5.46205 2.9583 5.49777 2.94639C5.52753 2.93449 5.56622 2.91514 5.61384 2.88836C5.66146 2.86157 5.69122 2.8452 5.70312 2.83925C5.90551 2.75592 6.03051 2.73508 6.07812 2.77675L6.12277 2.73211C6.2061 2.82735 6.26562 2.90175 6.30134 2.95532C6.25967 2.93151 6.17039 2.92854 6.03348 2.94639C5.91443 2.98211 5.84896 3.01782 5.83705 3.05354C5.87872 3.12497 5.8936 3.17854 5.8817 3.21425C5.85789 3.19639 5.82366 3.16663 5.77902 3.12497C5.73438 3.0833 5.69122 3.05056 5.64955 3.02675C5.60789 3.00294 5.56324 2.98806 5.51562 2.98211C5.42039 2.98211 5.35491 2.98508 5.3192 2.99104C4.45015 3.46723 3.75074 4.12794 3.22098 4.97318C3.26265 5.01485 3.29836 5.03866 3.32812 5.04461C3.35193 5.05056 3.36682 5.07735 3.37277 5.12497C3.37872 5.17258 3.38616 5.20532 3.39509 5.22318C3.40402 5.24104 3.43824 5.23211 3.49777 5.19639C3.55134 5.24401 3.56027 5.30056 3.52455 5.36604C3.53051 5.36008 3.66146 5.44044 3.91741 5.60711C4.03051 5.7083 4.09301 5.7708 4.10491 5.79461C4.12277 5.86008 4.09301 5.91366 4.01563 5.95532C4.00967 5.94342 3.98289 5.91663 3.93527 5.87497C3.88765 5.8333 3.86086 5.82139 3.85491 5.83925C3.83705 5.86901 3.83854 5.92407 3.85938 6.00443C3.88021 6.08479 3.91146 6.12199 3.95313 6.11604C3.91146 6.11604 3.88318 6.16366 3.8683 6.25889C3.85342 6.35413 3.84598 6.45979 3.84598 6.57586C3.84598 6.69193 3.84301 6.76187 3.83705 6.78568L3.85491 6.79461C3.83705 6.86604 3.85342 6.96872 3.90402 7.10264C3.95461 7.23657 4.0186 7.29461 4.09598 7.27675C4.0186 7.29461 4.07813 7.42258 4.27455 7.66068C4.31027 7.7083 4.33408 7.73508 4.34598 7.74104C4.36384 7.75294 4.39955 7.77526 4.45313 7.808C4.5067 7.84074 4.55134 7.8705 4.58705 7.89729C4.62277 7.92407 4.65253 7.95532 4.67634 7.99104C4.70015 8.0208 4.72991 8.08776 4.76563 8.19193C4.80134 8.2961 4.84301 8.36604 4.89063 8.40175C4.87872 8.43747 4.90699 8.49699 4.97545 8.58032C5.0439 8.66366 5.07515 8.73211 5.0692 8.78568C5.06324 8.78568 5.0558 8.78866 5.04688 8.79461C5.03795 8.80056 5.03051 8.80354 5.02455 8.80354C5.04241 8.8452 5.08854 8.88687 5.16295 8.92854C5.23735 8.9702 5.28348 9.00889 5.30134 9.04461C5.30729 9.06247 5.31324 9.09223 5.3192 9.13389C5.32515 9.17556 5.33408 9.2083 5.34598 9.23211C5.35789 9.25592 5.3817 9.26187 5.41741 9.24997C5.42932 9.13092 5.35789 8.94639 5.20312 8.69639C5.11384 8.54758 5.06324 8.46128 5.05134 8.43747C5.03348 8.4077 5.01711 8.36157 5.00223 8.29907C4.98735 8.23657 4.97396 8.19342 4.96205 8.16961C4.97396 8.16961 4.99182 8.17407 5.01563 8.183C5.03943 8.19193 5.06473 8.20235 5.09152 8.21425C5.1183 8.22616 5.14063 8.23806 5.15848 8.24997C5.17634 8.26187 5.18229 8.2708 5.17634 8.27675C5.15848 8.31842 5.16443 8.3705 5.1942 8.433C5.22396 8.4955 5.25967 8.55056 5.30134 8.59818C5.34301 8.6458 5.3936 8.70235 5.45312 8.76782C5.51265 8.8333 5.54836 8.87199 5.56027 8.88389C5.59598 8.91961 5.63765 8.97764 5.68527 9.058C5.73289 9.13836 5.73289 9.17854 5.68527 9.17854C5.73884 9.17854 5.79836 9.2083 5.86384 9.26782C5.92932 9.32735 5.97991 9.38687 6.01562 9.44639C6.04539 9.49401 6.0692 9.57139 6.08705 9.67854C6.10491 9.78568 6.11979 9.85711 6.1317 9.89282C6.1436 9.93449 6.1689 9.97467 6.20759 10.0134C6.24628 10.052 6.28348 10.0803 6.3192 10.0982L6.46205 10.1696L6.57813 10.2321C6.60789 10.244 6.66295 10.2753 6.7433 10.3259C6.82366 10.3765 6.88765 10.4107 6.93527 10.4285C6.99479 10.4523 7.04241 10.4643 7.07813 10.4643C7.11384 10.4643 7.15699 10.4568 7.20759 10.4419C7.25818 10.427 7.29836 10.4166 7.32813 10.4107C7.41741 10.3988 7.50372 10.4434 7.58705 10.5446C7.67039 10.6458 7.73289 10.7083 7.77455 10.7321C7.98884 10.8452 8.15253 10.8779 8.26563 10.8303C8.25372 10.8363 8.25521 10.8586 8.27009 10.8973C8.28497 10.936 8.30878 10.9821 8.34152 11.0357C8.37426 11.0893 8.40104 11.1324 8.42188 11.1651C8.44271 11.1979 8.45908 11.2232 8.47098 11.241C8.50074 11.2768 8.55432 11.3214 8.6317 11.375C8.70908 11.4285 8.76265 11.4732 8.79241 11.5089C8.82813 11.4851 8.84896 11.4583 8.85491 11.4285C8.83705 11.4762 8.85789 11.5357 8.91741 11.6071C8.97693 11.6785 9.03051 11.7083 9.07813 11.6964C9.16146 11.6785 9.20312 11.5833 9.20312 11.4107C9.0186 11.5 8.87277 11.4464 8.76563 11.25C8.76563 11.244 8.75818 11.2276 8.7433 11.2009C8.72842 11.1741 8.71652 11.1488 8.70759 11.125C8.69866 11.1012 8.69122 11.0759 8.68527 11.0491C8.67932 11.0223 8.67932 11 8.68527 10.9821C8.69122 10.9643 8.7061 10.9553 8.72991 10.9553C8.78348 10.9553 8.81324 10.9449 8.8192 10.9241C8.82515 10.9032 8.8192 10.866 8.80134 10.8125C8.78348 10.7589 8.77158 10.7202 8.76563 10.6964C8.75967 10.6488 8.72693 10.5893 8.66741 10.5178C8.60789 10.4464 8.57217 10.4018 8.56027 10.3839C8.53051 10.4375 8.48289 10.4613 8.41741 10.4553C8.35193 10.4494 8.30432 10.4226 8.27455 10.375C8.27455 10.3809 8.27009 10.3973 8.26116 10.4241C8.25223 10.4509 8.24777 10.4702 8.24777 10.4821C8.17039 10.4821 8.12574 10.4791 8.11384 10.4732C8.11979 10.4553 8.12723 10.4032 8.13616 10.3169C8.14509 10.2306 8.15551 10.1637 8.16741 10.116C8.17336 10.0922 8.18973 10.0565 8.21652 10.0089C8.2433 9.96128 8.26563 9.91812 8.28348 9.87943C8.30134 9.84074 8.31324 9.80354 8.3192 9.76782C8.32515 9.73211 8.31176 9.70383 8.27902 9.683C8.24628 9.66217 8.1942 9.65473 8.12277 9.66068C8.00967 9.66663 7.93229 9.72616 7.89063 9.83925C7.88467 9.85711 7.87574 9.88836 7.86384 9.933C7.85193 9.97764 7.83705 10.0119 7.8192 10.0357C7.80134 10.0595 7.77455 10.0803 7.73884 10.0982C7.69717 10.116 7.62574 10.122 7.52455 10.116C7.42336 10.1101 7.35193 10.0952 7.31027 10.0714C7.23289 10.0238 7.16592 9.93747 7.10938 9.81247C7.05283 9.68747 7.02455 9.57735 7.02455 9.48211C7.02455 9.42258 7.03199 9.34372 7.04688 9.2455C7.06176 9.14729 7.07068 9.07288 7.07366 9.02229C7.07664 8.97169 7.06027 8.89878 7.02455 8.80354C7.04241 8.79163 7.0692 8.76336 7.10491 8.71872C7.14063 8.67407 7.17039 8.64282 7.1942 8.62497C7.2061 8.61901 7.21949 8.61455 7.23438 8.61157C7.24926 8.6086 7.26265 8.6086 7.27455 8.61157C7.28646 8.61455 7.29836 8.61008 7.31027 8.59818C7.32217 8.58628 7.3311 8.56842 7.33705 8.54461C7.3311 8.53866 7.3192 8.52973 7.30134 8.51782C7.28348 8.49997 7.27158 8.49104 7.26563 8.49104C7.30729 8.50889 7.39211 8.50443 7.52009 8.47764C7.64807 8.45086 7.72991 8.45532 7.76563 8.49104C7.85491 8.55651 7.92039 8.55056 7.96205 8.47318C7.96205 8.46723 7.95461 8.43895 7.93973 8.38836C7.92485 8.33776 7.92336 8.29758 7.93527 8.26782C7.96503 8.42854 8.05134 8.45532 8.1942 8.34818C8.21205 8.36604 8.25818 8.38092 8.33259 8.39282C8.40699 8.40473 8.45908 8.41961 8.48884 8.43747C8.5067 8.44937 8.52753 8.46574 8.55134 8.48657C8.57515 8.50741 8.59152 8.5208 8.60045 8.52675C8.60938 8.5327 8.62426 8.53122 8.64509 8.52229C8.66592 8.51336 8.69122 8.49401 8.72098 8.46425C8.78051 8.54758 8.81622 8.61901 8.82813 8.67854C8.8936 8.91663 8.95015 9.04758 8.99777 9.07139C9.03943 9.08925 9.07217 9.0952 9.09598 9.08925C9.11979 9.0833 9.13318 9.05503 9.13616 9.00443C9.13914 8.95383 9.13914 8.91217 9.13616 8.87943C9.13318 8.84669 9.12872 8.80949 9.12277 8.76782L9.11384 8.69639V8.53568L9.10491 8.46425C9.01563 8.44639 8.96057 8.41068 8.93973 8.35711C8.9189 8.30354 8.92336 8.24848 8.95313 8.19193C8.98289 8.13538 9.02753 8.08032 9.08705 8.02675C9.09301 8.0208 9.11682 8.01038 9.15848 7.9955C9.20015 7.98062 9.24628 7.96128 9.29688 7.93747C9.34747 7.91366 9.38467 7.88985 9.40848 7.86604C9.53348 7.75294 9.57812 7.64878 9.54241 7.55354C9.58408 7.55354 9.61682 7.52675 9.64062 7.47318C9.63467 7.47318 9.61979 7.46425 9.59598 7.44639C9.57217 7.42854 9.54985 7.41366 9.52902 7.40175C9.50818 7.38985 9.49479 7.38389 9.48884 7.38389C9.54241 7.35413 9.54836 7.30651 9.5067 7.24104C9.53646 7.22318 9.55878 7.19044 9.57366 7.14282C9.58854 7.0952 9.61086 7.06544 9.64062 7.05354C9.6942 7.12497 9.7567 7.13092 9.82812 7.07139C9.86979 7.02378 9.87277 6.97616 9.83705 6.92854C9.86682 6.88687 9.92783 6.85562 10.0201 6.83479C10.1124 6.81395 10.1674 6.78568 10.1853 6.74997C10.2269 6.76187 10.2507 6.75592 10.2567 6.73211C10.2626 6.7083 10.2656 6.67258 10.2656 6.62497C10.2656 6.57735 10.2746 6.54163 10.2924 6.51782C10.3162 6.48806 10.3609 6.46128 10.4263 6.43747C10.4918 6.41366 10.5305 6.39878 10.5424 6.39282L10.6942 6.29461C10.7121 6.2708 10.7121 6.25889 10.6942 6.25889C10.8013 6.2708 10.8936 6.23806 10.971 6.16068C11.0305 6.0952 11.0126 6.03568 10.9174 5.98211C10.9353 5.94639 10.9263 5.91812 10.8906 5.89729C10.8549 5.87645 10.8103 5.86008 10.7567 5.84818C10.7746 5.84223 10.8088 5.84074 10.8594 5.84372C10.91 5.84669 10.9412 5.84223 10.9531 5.83032C11.0424 5.7708 11.0216 5.72318 10.8906 5.68747C10.7894 5.6577 10.6615 5.69342 10.5067 5.79461ZM9.05134 13.625C10.2775 13.4107 11.3222 12.8482 12.1853 11.9375C12.1674 11.9196 12.1302 11.9062 12.0737 11.8973C12.0171 11.8884 11.9799 11.8779 11.9621 11.866C11.8549 11.8244 11.7835 11.8006 11.7478 11.7946C11.7537 11.7529 11.7463 11.7143 11.7254 11.6785C11.7046 11.6428 11.6808 11.616 11.654 11.5982C11.6272 11.5803 11.59 11.5565 11.5424 11.5268C11.4948 11.497 11.4621 11.4762 11.4442 11.4643C11.4323 11.4523 11.4115 11.4345 11.3817 11.4107C11.3519 11.3869 11.3311 11.3705 11.3192 11.3616C11.3073 11.3526 11.285 11.3393 11.2522 11.3214C11.2195 11.3035 11.1942 11.2976 11.1763 11.3035C11.1585 11.3095 11.1287 11.3125 11.0871 11.3125L11.0603 11.3214C11.0424 11.3273 11.026 11.3348 11.0112 11.3437C10.9963 11.3526 10.9799 11.3616 10.9621 11.3705C10.9442 11.3794 10.9323 11.3884 10.9263 11.3973C10.9204 11.4062 10.9204 11.4137 10.9263 11.4196C10.8013 11.3184 10.6942 11.2529 10.6049 11.2232C10.5751 11.2172 10.5424 11.2009 10.5067 11.1741C10.471 11.1473 10.4397 11.1265 10.4129 11.1116C10.3862 11.0967 10.3564 11.0922 10.3237 11.0982C10.2909 11.1041 10.2567 11.125 10.221 11.1607C10.1912 11.1904 10.1734 11.2351 10.1674 11.2946C10.1615 11.3541 10.1555 11.3928 10.1496 11.4107C10.1079 11.3809 10.1079 11.3288 10.1496 11.2544C10.1912 11.18 10.1972 11.125 10.1674 11.0893C10.1496 11.0535 10.1183 11.0401 10.0737 11.0491C10.029 11.058 9.9933 11.0714 9.96652 11.0893C9.93973 11.1071 9.90551 11.1324 9.86384 11.1651C9.82217 11.1979 9.79539 11.2172 9.78348 11.2232C9.77158 11.2291 9.74628 11.2455 9.70759 11.2723C9.6689 11.2991 9.6436 11.3214 9.6317 11.3393C9.61384 11.3631 9.59598 11.3988 9.57812 11.4464C9.56027 11.494 9.54539 11.5268 9.53348 11.5446C9.52158 11.5208 9.48735 11.5015 9.4308 11.4866C9.37426 11.4717 9.34598 11.4553 9.34598 11.4375C9.35789 11.497 9.36979 11.6012 9.3817 11.75C9.3936 11.8988 9.40848 12.0119 9.42634 12.0893C9.46801 12.2738 9.43229 12.4166 9.3192 12.5178C9.15848 12.6666 9.07217 12.7857 9.06027 12.875C9.03646 13.0059 9.07217 13.0833 9.16741 13.1071C9.16741 13.1488 9.1436 13.2098 9.09598 13.2901C9.04836 13.3705 9.02753 13.4345 9.03348 13.4821C9.03348 13.5178 9.03943 13.5654 9.05134 13.625Z" fill="#781069"/>
</svg>
