<svg width="45" height="44" viewBox="0 0 45 44" fill="none" xmlns="http://www.w3.org/2000/svg">
<circle cx="22.1135" cy="22" r="21.5" stroke="#781069"/>
<path d="M24.6436 19.47L19.5836 24.53C18.9336 23.88 18.5336 22.99 18.5336 22C18.5336 20.02 20.1336 18.42 22.1136 18.42C23.1036 18.42 23.9936 18.82 24.6436 19.47Z" stroke="#781069" stroke-width="1.5" stroke-linecap="round" stroke-linejoin="round"/>
<path d="M27.9335 15.77C26.1835 14.45 24.1835 13.73 22.1135 13.73C18.5835 13.73 15.2935 15.81 13.0035 19.41C12.1035 20.82 12.1035 23.19 13.0035 24.6C13.7935 25.84 14.7135 26.91 15.7135 27.77" stroke="#781069" stroke-width="1.5" stroke-linecap="round" stroke-linejoin="round"/>
<path d="M18.5336 29.53C19.6736 30.01 20.8836 30.27 22.1136 30.27C25.6436 30.27 28.9336 28.19 31.2236 24.59C32.1236 23.18 32.1236 20.81 31.2236 19.4C30.8936 18.88 30.5336 18.39 30.1636 17.93" stroke="#781069" stroke-width="1.5" stroke-linecap="round" stroke-linejoin="round"/>
<path d="M25.6235 22.7C25.3635 24.11 24.2135 25.26 22.8035 25.52" stroke="#781069" stroke-width="1.5" stroke-linecap="round" stroke-linejoin="round"/>
<path d="M19.5835 24.53L12.1135 32" stroke="#781069" stroke-width="1.5" stroke-linecap="round" stroke-linejoin="round"/>
<path d="M32.1136 12L24.6436 19.47" stroke="#781069" stroke-width="1.5" stroke-linecap="round" stroke-linejoin="round"/>
</svg>
