<svg width="30" height="30" viewBox="0 0 21 20" fill="none" xmlns="http://www.w3.org/2000/svg">
<path d="M18.6535 4.81997L12.8935 0.789968C11.3235 -0.310032 8.91352 -0.250032 7.40351 0.919968L2.39352 4.82997C1.39352 5.60997 0.603516 7.20997 0.603516 8.46997V15.37C0.603516 17.92 2.67352 20 5.22352 20H16.0035C18.5535 20 20.6235 17.93 20.6235 15.38V8.59997C20.6235 7.24997 19.7535 5.58997 18.6535 4.81997ZM11.3635 16C11.3635 16.41 11.0235 16.75 10.6135 16.75C10.2035 16.75 9.86351 16.41 9.86351 16V13C9.86351 12.59 10.2035 12.25 10.6135 12.25C11.0235 12.25 11.3635 12.59 11.3635 13V16Z" fill="#781069"/>
</svg>
