<svg width="21" height="20" viewBox="0 0 21 20" fill="none" xmlns="http://www.w3.org/2000/svg">
<path fill-rule="evenodd" clip-rule="evenodd" d="M8.5 3.99997C7.43913 3.99997 6.42172 4.4214 5.67157 5.17155C4.92143 5.92169 4.5 6.93911 4.5 7.99997C4.5 9.06084 4.92143 10.0783 5.67157 10.8284C6.42172 11.5785 7.43913 12 8.5 12C9.56087 12 10.5783 11.5785 11.3284 10.8284C12.0786 10.0783 12.5 9.06084 12.5 7.99997C12.5 6.93911 12.0786 5.92169 11.3284 5.17155C10.5783 4.4214 9.56087 3.99997 8.5 3.99997ZM2.5 7.99997C2.49988 7.05568 2.72264 6.12469 3.15017 5.28271C3.5777 4.44074 4.19792 3.71157 4.9604 3.1545C5.72287 2.59743 6.60606 2.22819 7.53815 2.07681C8.47023 1.92543 9.42488 1.99618 10.3245 2.28332C11.224 2.57046 12.0432 3.06587 12.7152 3.72927C13.3872 4.39266 13.8931 5.20531 14.1919 6.10111C14.4906 6.99691 14.5737 7.95057 14.4343 8.88453C14.295 9.81849 13.9372 10.7064 13.39 11.476L18.207 16.293C18.3892 16.4816 18.49 16.7342 18.4877 16.9964C18.4854 17.2586 18.3802 17.5094 18.1948 17.6948C18.0094 17.8802 17.7586 17.9854 17.4964 17.9876C17.2342 17.9899 16.9816 17.8891 16.793 17.707L11.977 12.891C11.0794 13.5293 10.0233 13.9081 8.92468 13.9861C7.826 14.0641 6.72707 13.8381 5.7483 13.3329C4.76953 12.8278 3.94869 12.063 3.37572 11.1223C2.80276 10.1816 2.49979 9.10141 2.5 7.99997Z" fill="#000E08"/>
</svg>
