<svg width="17" height="17" viewBox="0 0 17 17" fill="none" xmlns="http://www.w3.org/2000/svg">
<path d="M9.44686 7.17601H12.6229C12.8501 7.17601 13.0736 7.2341 13.2721 7.34475C13.4705 7.45541 13.6375 7.61495 13.7569 7.80825C13.8764 8.00154 13.9445 8.22217 13.9548 8.44918C13.965 8.67619 13.9171 8.90206 13.8155 9.10534L11.4822 13.772C11.3714 13.9936 11.2011 14.18 10.9903 14.3103C10.7795 14.4405 10.5366 14.5095 10.2889 14.5093H7.61086C7.50219 14.5093 7.39352 14.496 7.28752 14.4693L4.78019 13.8427M9.44686 7.17601V3.84267C9.44686 3.48905 9.30638 3.14991 9.05633 2.89986C8.80629 2.64981 8.46715 2.50934 8.11353 2.50934H8.05019C7.71686 2.50934 7.44686 2.77934 7.44686 3.11267C7.44686 3.58867 7.30619 4.054 7.04153 4.45L4.78019 7.84267V13.8427M9.44686 7.17601H8.11353M4.78019 13.8427H3.44686C3.09324 13.8427 2.7541 13.7022 2.50405 13.4521C2.254 13.2021 2.11353 12.863 2.11353 12.5093V8.50934C2.11353 8.15572 2.254 7.81658 2.50405 7.56653C2.7541 7.31648 3.09324 7.17601 3.44686 7.17601H5.11353" stroke="#FFFFFF" stroke-width="1" stroke-linecap="round" stroke-linejoin="round"/>
</svg>
