<svg width="45" height="45" viewBox="0 0 45 45" fill="none" xmlns="http://www.w3.org/2000/svg">
<circle cx="22.4999" cy="22.9277" r="22" fill="#781069"/>
<path d="M27.6966 26.1097L28.7572 27.1704L32.9999 22.9277L28.7572 18.6851L27.6965 19.7457L30.1285 22.1777H19.4999V23.6777H30.1285L27.6966 26.1097Z" fill="white"/>
<path d="M28.851 29.2918C27.1512 30.9916 24.8913 31.9277 22.4875 31.9277C20.0834 31.9277 17.8232 30.9916 16.1232 29.2917C14.4232 27.5918 13.4999 25.3317 13.4999 22.9277C13.4999 20.5239 14.4232 18.2639 16.1232 16.5639C17.8233 14.864 20.0835 13.9277 22.4875 13.9277C24.8912 13.9277 27.1511 14.864 28.851 16.5639C28.9689 16.682 29.0835 16.8034 29.1948 16.9277H31.104C29.2068 14.2077 26.0552 12.4277 22.4875 12.4277C16.6884 12.4277 11.9999 17.1292 11.9999 22.9277C11.9999 28.7269 16.6884 33.4277 22.4875 33.4277C26.0553 33.4277 29.207 31.6479 31.1042 28.9277H29.1949C29.0837 29.0522 28.969 29.1736 28.851 29.2918Z" fill="white"/>
</svg>
