<svg width="15" height="16" viewBox="0 0 15 16" fill="none" xmlns="http://www.w3.org/2000/svg">
<path d="M10.4857 2.18079H4.46041C2.79743 2.18079 1.44775 3.52443 1.44775 5.1814V8.78454V9.38707C1.44775 11.044 2.79743 12.3877 4.46041 12.3877H5.36421C5.5269 12.3877 5.74381 12.4961 5.84624 12.6287L6.75004 13.8277C7.14771 14.358 7.79844 14.358 8.19611 13.8277L9.09991 12.6287C9.21439 12.4781 9.39515 12.3877 9.58194 12.3877H10.4857C12.1487 12.3877 13.4984 11.044 13.4984 9.38707V5.1814C13.4984 3.52443 12.1487 2.18079 10.4857 2.18079ZM5.06295 8.20611C4.72553 8.20611 4.46041 7.93497 4.46041 7.60357C4.46041 7.27218 4.73155 7.00104 5.06295 7.00104C5.39434 7.00104 5.66548 7.27218 5.66548 7.60357C5.66548 7.93497 5.40036 8.20611 5.06295 8.20611ZM7.47307 8.20611C7.13566 8.20611 6.87054 7.93497 6.87054 7.60357C6.87054 7.27218 7.14168 7.00104 7.47307 7.00104C7.80447 7.00104 8.07561 7.27218 8.07561 7.60357C8.07561 7.93497 7.81049 8.20611 7.47307 8.20611ZM9.8832 8.20611C9.54578 8.20611 9.28067 7.93497 9.28067 7.60357C9.28067 7.27218 9.55181 7.00104 9.8832 7.00104C10.2146 7.00104 10.4857 7.27218 10.4857 7.60357C10.4857 7.93497 10.2206 8.20611 9.8832 8.20611Z" fill="white"/>
</svg>
