<svg width="31" height="30" viewBox="0 0 31 30" fill="none" xmlns="http://www.w3.org/2000/svg">
<g clip-path="url(#clip0_313_3102)">
<path fill-rule="evenodd" clip-rule="evenodd" d="M13.369 24.1616C13.911 24.73 14.6068 25.0422 15.3288 25.0422H15.3299C16.055 25.0422 16.754 24.73 17.2971 24.1607C17.588 23.8583 18.0839 23.8336 18.4052 24.1065C18.7275 24.3793 18.7536 24.8472 18.4638 25.1495C17.6183 26.033 16.506 26.5196 15.3299 26.5196H15.3278C14.1548 26.5186 13.0446 26.0321 12.2023 25.1486C11.9124 24.8462 11.9386 24.3783 12.2609 24.1065C12.5831 23.8327 13.0791 23.8573 13.369 24.1616ZM15.3809 5.34314C20.0321 5.34314 23.1566 8.75304 23.1566 11.9374C23.1566 13.5754 23.5992 14.2698 24.069 15.0065C24.5336 15.7334 25.0599 16.5588 25.0599 18.119C24.6947 22.1051 20.2738 22.4301 15.3809 22.4301C10.4881 22.4301 6.06611 22.1051 5.70509 18.182C5.70197 16.5588 6.22829 15.7334 6.69288 15.0065L6.8569 14.7466C7.26073 14.0933 7.60532 13.3827 7.60532 11.9374C7.60532 8.75304 10.7298 5.34314 15.3809 5.34314ZM15.3809 6.82057C11.7239 6.82057 9.17489 9.51737 9.17489 11.9374C9.17489 13.9851 8.57113 14.9316 8.03748 15.7669C7.60951 16.4376 7.27153 16.9675 7.27153 18.119C7.44627 19.9766 8.74901 20.9527 15.3809 20.9527C21.9762 20.9527 23.3198 19.9332 23.4935 18.0549C23.4904 16.9675 23.1524 16.4376 22.7244 15.7669C22.1908 14.9316 21.587 13.9851 21.587 11.9374C21.587 9.51737 19.038 6.82057 15.3809 6.82057Z" fill="#1D0419"/>
<circle cx="22.1135" cy="7.94446" r="3.75" fill="#781069" stroke="white" stroke-width="0.5"/>
</g>
<defs>
<clipPath id="clip0_313_3102">
<rect width="30" height="30" fill="white" transform="translate(0.113525)"/>
</clipPath>
</defs>
</svg>
