<svg width="25" height="24" viewBox="0 0 25 24" fill="none" xmlns="http://www.w3.org/2000/svg">
<path d="M13.7561 9C13.3583 9 12.9767 8.84196 12.6954 8.56066C12.4141 8.27936 12.2561 7.89782 12.2561 7.5C12.2561 7.10218 12.4141 6.72064 12.6954 6.43934C12.9767 6.15804 13.3583 6 13.7561 6C14.1539 6 14.5355 6.15804 14.8168 6.43934C15.0981 6.72064 15.2561 7.10218 15.2561 7.5C15.2561 7.89782 15.0981 8.27936 14.8168 8.56066C14.5355 8.84196 14.1539 9 13.7561 9Z" fill="#B481AC"/>
<path d="M19.2561 2H5.2561C4.46118 2.00237 3.6995 2.31921 3.13741 2.8813C2.57531 3.4434 2.25848 4.20508 2.2561 5V13.86L6.1361 9.98C6.7078 9.43586 7.46685 9.13238 8.2561 9.13238C9.04536 9.13238 9.8044 9.43586 10.3761 9.98L13.2471 12.867L14.1351 11.979C14.6987 11.4185 15.4613 11.1039 16.2561 11.1039C17.051 11.1039 17.8135 11.4185 18.3771 11.979L22.2561 15.86V5C22.2537 4.20508 21.9369 3.4434 21.3748 2.8813C20.8127 2.31921 20.051 2.00237 19.2561 2ZM13.7561 9C13.3583 9 12.9767 8.84196 12.6954 8.56066C12.4141 8.27936 12.2561 7.89782 12.2561 7.5C12.2561 7.10218 12.4141 6.72064 12.6954 6.43934C12.9767 6.15804 13.3583 6 13.7561 6C14.1539 6 14.5355 6.15804 14.8168 6.43934C15.0981 6.72064 15.2561 7.10218 15.2561 7.5C15.2561 7.89782 15.0981 8.27936 14.8168 8.56066C14.5355 8.84196 14.1539 9 13.7561 9Z" fill="#FFCBF7"/>
<path d="M10.3761 9.98C9.8044 9.43586 9.04536 9.13239 8.2561 9.13239C7.46685 9.13239 6.7078 9.43586 6.1361 9.98L2.2561 13.86V19C2.25848 19.7949 2.57531 20.5566 3.13741 21.1187C3.6995 21.6808 4.46118 21.9976 5.2561 22H19.2561C20.0711 22 20.8511 21.667 21.4161 21.08L10.3761 9.98Z" fill="#781069"/>
<path d="M22.2561 15.858L18.3771 11.979C17.8135 11.4185 17.0509 11.1039 16.2561 11.1039C15.4612 11.1039 14.6987 11.4185 14.1351 11.979L13.2471 12.867L21.4121 21.076C21.9541 20.521 22.2571 19.776 22.2561 19V15.858Z" fill="#B481AC"/>
</svg>
