<svg width="33" height="32" viewBox="0 0 33 32" fill="none" xmlns="http://www.w3.org/2000/svg">
<rect x="0.700684" width="32" height="32" rx="12" fill="#781069"/>
<path d="M23.5342 23.5H19.5342" stroke="white" stroke-width="1.5" stroke-linecap="round" stroke-linejoin="round"/>
<path d="M21.5342 25.5V21.5" stroke="white" stroke-width="1.5" stroke-linecap="round" stroke-linejoin="round"/>
<path d="M17.1942 14.87C17.0942 14.86 16.9742 14.86 16.8642 14.87C14.4842 14.79 12.5942 12.84 12.5942 10.44C12.5842 7.99 14.5742 6 17.0242 6C19.4742 6 21.4642 7.99 21.4642 10.44C21.4642 12.84 19.5642 14.79 17.1942 14.87Z" stroke="white" stroke-width="1.5" stroke-linecap="round" stroke-linejoin="round"/>
<path d="M17.0242 25.8101C15.2042 25.8101 13.3942 25.3501 12.0142 24.4301C9.59416 22.8101 9.59416 20.1701 12.0142 18.5601C14.7642 16.7201 19.2742 16.7201 22.0242 18.5601" stroke="white" stroke-width="1.5" stroke-linecap="round" stroke-linejoin="round"/>
</svg>
