<svg width="45" height="45" viewBox="0 0 45 45" fill="none" xmlns="http://www.w3.org/2000/svg">
<circle cx="22.4999" cy="22.9277" r="22" fill="#781069"/>
<path d="M28.7394 19.9029L27.9942 19.9875L28.7394 19.9029ZM29.1866 23.843L29.9318 23.7584V23.7584L29.1866 23.843ZM15.8132 23.843L15.0679 23.7584L15.0679 23.7584L15.8132 23.843ZM16.2603 19.9029L17.0056 19.9875L16.2603 19.9029ZM14.9477 25.7999L14.3766 25.3137H14.3766L14.9477 25.7999ZM30.0521 25.7999L29.481 26.286L30.0521 25.7999ZM24.7698 15.3014H24.0198C24.0198 15.622 24.2236 15.9071 24.5269 16.011L24.7698 15.3014ZM20.2299 15.3014L20.4729 16.011C20.7762 15.9071 20.9799 15.622 20.9799 15.3014H20.2299ZM26.2022 31.1909C26.3475 30.8031 26.151 30.3708 25.7631 30.2254C25.3752 30.0801 24.9429 30.2767 24.7976 30.6645L26.2022 31.1909ZM20.2022 30.6645C20.0568 30.2767 19.6245 30.0801 19.2367 30.2254C18.8488 30.3708 18.6522 30.8031 18.7976 31.1909L20.2022 30.6645ZM28.2771 28.1777H16.7227V29.6777H28.2771V28.1777ZM27.9942 19.9875L28.4414 23.9276L29.9318 23.7584L29.4846 19.8183L27.9942 19.9875ZM16.5584 23.9276L17.0056 19.9875L15.5151 19.8183L15.0679 23.7584L16.5584 23.9276ZM15.5188 26.286C16.0961 25.6078 16.4602 24.7929 16.5584 23.9276L15.0679 23.7584C15.0051 24.3124 14.7706 24.8509 14.3766 25.3137L15.5188 26.286ZM28.4414 23.9276C28.5396 24.7929 28.9037 25.6078 29.481 26.286L30.6232 25.3137C30.2292 24.8509 29.9947 24.3123 29.9318 23.7584L28.4414 23.9276ZM16.7227 28.1777C16.0677 28.1777 15.6043 27.8538 15.3904 27.4769C15.184 27.1131 15.187 26.6757 15.5188 26.286L14.3766 25.3137C13.6113 26.2127 13.5877 27.3393 14.0859 28.2172C14.5767 29.0821 15.5494 29.6777 16.7227 29.6777V28.1777ZM28.2771 29.6777C29.4504 29.6777 30.4231 29.0821 30.9139 28.2172C31.4121 27.3393 31.3885 26.2127 30.6232 25.3137L29.481 26.286C29.8127 26.6757 29.8158 27.1131 29.6093 27.4769C29.3955 27.8538 28.9321 28.1777 28.2771 28.1777V29.6777ZM25.5198 15.3014V15.1977H24.0198V15.3014H25.5198ZM29.4846 19.8183C29.2054 17.358 27.3804 15.4025 25.0128 14.5918L24.5269 16.011C26.444 16.6674 27.7912 18.1987 27.9942 19.9875L29.4846 19.8183ZM20.9799 15.3014V15.1977H19.4799V15.3014H20.9799ZM17.0056 19.9875C17.2086 18.1987 18.5558 16.6674 20.4729 16.011L19.987 14.5918C17.6193 15.4025 15.7944 17.358 15.5151 19.8183L17.0056 19.9875ZM22.4999 13.6777C23.3393 13.6777 24.0198 14.3582 24.0198 15.1977H25.5198C25.5198 13.5298 24.1677 12.1777 22.4999 12.1777V13.6777ZM22.4999 12.1777C20.832 12.1777 19.4799 13.5298 19.4799 15.1977H20.9799C20.9799 14.3582 21.6604 13.6777 22.4999 13.6777V12.1777ZM24.7976 30.6645C24.4749 31.5256 23.5845 32.1777 22.4999 32.1777V33.6777C24.1854 33.6777 25.6515 32.6602 26.2022 31.1909L24.7976 30.6645ZM22.4999 32.1777C21.4153 32.1777 20.5249 31.5256 20.2022 30.6645L18.7976 31.1909C19.3482 32.6602 20.8144 33.6777 22.4999 33.6777V32.1777Z" fill="white"/>
</svg>
