<svg width="25" height="25" viewBox="0 0 25 25" fill="none" xmlns="http://www.w3.org/2000/svg">
<path d="M19.9907 9.89002L21.8907 11.79C21.9844 11.883 22.0588 11.9936 22.1096 12.1154C22.1604 12.2373 22.1865 12.368 22.1865 12.5C22.1865 12.632 22.1604 12.7627 22.1096 12.8846C22.0588 13.0065 21.9844 13.1171 21.8907 13.21L19.9907 15.11C19.806 15.2963 19.7018 15.5477 19.7007 15.81V18.5C19.7007 18.7652 19.5953 19.0196 19.4078 19.2071C19.2203 19.3947 18.9659 19.5 18.7007 19.5H16.0107C15.7484 19.5011 15.497 19.6053 15.3107 19.79L13.4107 21.69C13.3177 21.7837 13.2071 21.8581 13.0853 21.9089C12.9634 21.9597 12.8327 21.9858 12.7007 21.9858C12.5687 21.9858 12.438 21.9597 12.3161 21.9089C12.1943 21.8581 12.0837 21.7837 11.9907 21.69L10.0907 19.79C9.90444 19.6053 9.65304 19.5011 9.3907 19.5H6.7007C6.43549 19.5 6.18113 19.3947 5.9936 19.2071C5.80606 19.0196 5.7007 18.7652 5.7007 18.5V15.81C5.6996 15.5477 5.59545 15.2963 5.4107 15.11L3.5107 13.21C3.41697 13.1171 3.34258 13.0065 3.29181 12.8846C3.24104 12.7627 3.2149 12.632 3.2149 12.5C3.2149 12.368 3.24104 12.2373 3.29181 12.1154C3.34258 11.9936 3.41697 11.883 3.5107 11.79L5.4107 9.89002C5.59545 9.70376 5.6996 9.45236 5.7007 9.19002V6.50002C5.7007 6.2348 5.80606 5.98045 5.9936 5.79291C6.18113 5.60538 6.43549 5.50002 6.7007 5.50002H9.3907C9.65304 5.49891 9.90444 5.39476 10.0907 5.21002L11.9907 3.31002C12.0837 3.21629 12.1943 3.1419 12.3161 3.09113C12.438 3.04036 12.5687 3.01422 12.7007 3.01422C12.8327 3.01422 12.9634 3.04036 13.0853 3.09113C13.2071 3.1419 13.3177 3.21629 13.4107 3.31002L15.3107 5.21002C15.497 5.39476 15.7484 5.49891 16.0107 5.50002H18.7007C18.9659 5.50002 19.2203 5.60538 19.4078 5.79291C19.5953 5.98045 19.7007 6.2348 19.7007 6.50002V9.19002C19.7018 9.45236 19.806 9.70376 19.9907 9.89002ZM12.7007 9.50002C12.1074 9.50002 11.5273 9.67597 11.034 10.0056C10.5406 10.3353 10.1561 10.8038 9.92906 11.352C9.702 11.9001 9.64259 12.5033 9.75835 13.0853C9.8741 13.6672 10.1598 14.2018 10.5794 14.6213C10.9989 15.0409 11.5335 15.3266 12.1154 15.4424C12.6974 15.5581 13.3006 15.4987 13.8488 15.2717C14.3969 15.0446 14.8655 14.6601 15.1951 14.1667C15.5248 13.6734 15.7007 13.0934 15.7007 12.5C15.7007 11.7044 15.3846 10.9413 14.822 10.3787C14.2594 9.81609 13.4964 9.50002 12.7007 9.50002Z" stroke="#1D0419" stroke-width="2" stroke-linecap="round" stroke-linejoin="round"/>
</svg>
