<svg width="45" height="44" viewBox="0 0 45 44" fill="none" xmlns="http://www.w3.org/2000/svg">
<circle cx="22.6135" cy="22" r="22" fill="#781069"/>
<g clip-path="url(#clip0_61_619)">
<path d="M22.4301 19.8786C22.4864 19.8593 22.5402 19.833 22.5904 19.8003C22.6216 19.7749 22.6497 19.7456 22.6739 19.7129C22.6865 19.6995 22.6984 19.6854 22.7095 19.6706C22.7346 19.6279 22.7533 19.5815 22.7651 19.533C22.7682 19.5215 22.7751 19.5119 22.7774 19.5001L22.7784 19.4976C22.7777 19.4331 22.7777 19.3687 22.7784 19.3042L22.7774 19.3018C22.7539 19.208 22.7069 19.1225 22.6412 19.0539C22.5755 18.9854 22.4934 18.9363 22.4035 18.9118L22.4001 18.9103C18.8583 18.1841 17.4423 16.3213 16.7884 11.5274C16.787 11.5174 16.781 11.5097 16.7788 11.4998C16.7711 11.4659 16.7598 11.433 16.7452 11.4016C16.7351 11.3737 16.7225 11.3468 16.7077 11.3212C16.6584 11.2395 16.5839 11.1776 16.4965 11.1455C16.4682 11.1316 16.4386 11.1206 16.4082 11.1129C16.3982 11.1107 16.3905 11.1041 16.3802 11.1026C16.3578 11.1023 16.3353 11.1037 16.313 11.1068C16.2907 11.1037 16.2681 11.1023 16.2455 11.1026C16.2353 11.1041 16.2275 11.1107 16.2175 11.1129C16.1267 11.1286 16.0438 11.176 15.9823 11.2474C15.9352 11.2875 15.9 11.3407 15.8809 11.4009C15.8662 11.4325 15.8549 11.4657 15.8473 11.4999C15.8453 11.5097 15.8392 11.5174 15.8377 11.5274C15.1839 16.3213 13.7678 18.1841 10.2262 18.91L10.2231 18.9115C10.1682 18.9242 10.1159 18.9469 10.0685 18.9784C10.0363 19.0011 10.0069 19.028 9.98113 19.0584C9.95911 19.0776 9.93884 19.0988 9.92055 19.1218C9.8856 19.1763 9.86125 19.2375 9.84889 19.3018L9.84802 19.304C9.8486 19.3684 9.8486 19.4329 9.84802 19.4973L9.84869 19.5C9.85114 19.5128 9.85853 19.5232 9.86194 19.5356C9.87364 19.5832 9.89201 19.6287 9.91647 19.6706C9.92759 19.6855 9.93949 19.6997 9.95213 19.7131C9.97635 19.7459 10.0045 19.7753 10.0358 19.8006C10.0537 19.813 10.0724 19.824 10.0918 19.8337C10.1246 19.853 10.1596 19.8681 10.1959 19.8787C10.2066 19.8817 10.2148 19.8894 10.2259 19.8917C13.7678 20.6182 15.1839 22.481 15.8378 27.275C15.8392 27.2857 15.8452 27.2941 15.8474 27.3046C15.8537 27.332 15.8623 27.3588 15.8732 27.3846C15.8843 27.4166 15.8986 27.4474 15.9159 27.4763C15.9499 27.5261 15.9909 27.5702 16.0377 27.607C16.0582 27.6221 16.0798 27.6355 16.1023 27.647C16.1341 27.6632 16.1676 27.6755 16.2021 27.6838C16.2163 27.69 16.2309 27.6954 16.2457 27.6999C16.2676 27.7032 16.2896 27.7048 16.3117 27.7049H16.3125H16.3139H16.3148C16.3368 27.7049 16.3588 27.7032 16.3807 27.6999C16.3955 27.6954 16.41 27.69 16.4243 27.6838C16.4588 27.6755 16.4923 27.6632 16.5241 27.647C16.5466 27.6355 16.5682 27.6221 16.5887 27.607C16.6355 27.5702 16.6765 27.5261 16.7105 27.4763C16.7278 27.4473 16.7421 27.4166 16.7533 27.3846C16.7641 27.3587 16.7727 27.332 16.779 27.3046C16.7811 27.2941 16.787 27.2857 16.7886 27.275C17.4423 22.481 18.8583 20.6182 22.4001 19.8916C22.4112 19.8893 22.4194 19.8816 22.4301 19.8786ZM16.3131 24.6489C15.582 21.8283 14.3135 20.2548 12.1059 19.401C14.3135 18.5475 15.582 16.9743 16.3131 14.1536C17.0442 16.9743 18.3127 18.5475 20.5201 19.401C18.3127 20.255 17.0442 21.8283 16.3131 24.6489ZM31.9391 28.2276C31.9174 28.1327 31.8709 28.046 31.8047 27.9771C31.7385 27.9081 31.6553 27.8596 31.5642 27.837L31.5618 27.836C28.8258 27.2754 27.785 25.901 27.2774 22.1807C27.276 22.1707 27.2699 22.1627 27.2678 22.1527C27.2602 22.1194 27.2492 22.0871 27.2349 22.0562C27.2246 22.0274 27.2116 21.9996 27.1962 21.9733C27.1787 21.9487 27.159 21.926 27.1374 21.9053C27.116 21.8805 27.0922 21.8581 27.0664 21.8384C27.0435 21.8243 27.0196 21.8121 26.9948 21.8021C26.9625 21.7857 26.9285 21.7732 26.8935 21.765C26.8849 21.7633 26.8782 21.7575 26.8695 21.7561C26.8477 21.7558 26.826 21.7571 26.8044 21.76C26.7812 21.7568 26.7578 21.7555 26.7345 21.7561C26.7249 21.7576 26.7177 21.7638 26.7083 21.7658C26.6751 21.7739 26.6429 21.7858 26.6123 21.8013C26.5321 21.8412 26.4621 21.9002 26.4079 21.9735C26.3924 22.0001 26.3793 22.0281 26.3689 22.0572C26.3548 22.0878 26.3439 22.1199 26.3364 22.1529C26.3344 22.1629 26.3282 22.1707 26.3268 22.1809C25.8191 25.9012 24.778 27.2752 22.0419 27.8362L22.0381 27.8379C21.9861 27.8503 21.9365 27.8718 21.8914 27.9014C21.8657 27.9185 21.8418 27.9383 21.82 27.9605C21.7875 27.9873 21.7587 28.0186 21.7341 28.0534C21.7005 28.1065 21.677 28.1658 21.6648 28.2281L21.6639 28.2303C21.6645 28.2947 21.6645 28.3592 21.6639 28.4236L21.6648 28.4259C21.6673 28.4391 21.6749 28.4499 21.6784 28.4626C21.6901 28.5097 21.7083 28.5547 21.7324 28.5963C21.7693 28.6422 21.8091 28.6857 21.8514 28.7263C21.8698 28.739 21.8891 28.7503 21.909 28.7601C21.9415 28.7792 21.9761 28.7941 22.012 28.8046C22.0228 28.8077 22.0312 28.8154 22.0422 28.8177C24.7782 29.3787 25.8198 30.7527 26.327 34.473C26.3285 34.4838 26.3345 34.4923 26.3366 34.503C26.3429 34.5299 26.3513 34.5563 26.362 34.5817C26.3732 34.6142 26.3877 34.6452 26.4052 34.6745C26.4194 34.6961 26.4353 34.7164 26.4528 34.7353C26.475 34.7612 26.4998 34.7845 26.5268 34.8049C26.5473 34.8201 26.5689 34.8335 26.5915 34.8449C26.6232 34.8611 26.6566 34.8734 26.691 34.8817C26.7053 34.8879 26.7199 34.8932 26.7347 34.8978C26.7567 34.9011 26.7789 34.9028 26.8012 34.9028H26.8018H26.8027H26.8033C26.8255 34.9028 26.8477 34.9011 26.8697 34.8978C26.8846 34.8932 26.8992 34.8878 26.9135 34.8817C26.9479 34.8734 26.9813 34.8611 27.013 34.8449C27.0356 34.8335 27.0572 34.8201 27.0777 34.8049C27.1047 34.7845 27.1295 34.7612 27.1517 34.7353C27.1691 34.7164 27.185 34.6961 27.1993 34.6745C27.2168 34.6452 27.2313 34.6141 27.2425 34.5817C27.2531 34.5563 27.2616 34.5299 27.2678 34.503C27.27 34.4924 27.276 34.4839 27.2774 34.473C27.7846 30.753 28.8257 29.3787 31.5618 28.8177C31.573 28.8154 31.581 28.8077 31.592 28.8046C31.6484 28.7853 31.7023 28.7589 31.7525 28.7262C31.7831 28.7012 31.8106 28.6724 31.8344 28.6405C31.8829 28.5922 31.9152 28.529 31.9265 28.4602C31.9297 28.4483 31.9368 28.4384 31.9392 28.4262L31.9401 28.4237C31.9395 28.3592 31.9395 28.2948 31.9401 28.2303L31.9391 28.2276ZM26.8023 32.04C26.2363 30.1444 25.3098 28.99 23.8144 28.3268C25.3098 27.6633 26.2364 26.5092 26.8023 24.6134C27.3683 26.5092 28.2947 27.6634 29.79 28.3268C28.2943 28.99 27.3679 30.1442 26.8023 32.04ZM33.3655 16.1557C33.3687 16.1438 33.3758 16.1339 33.3782 16.1217L33.3791 16.1192C33.3821 16.087 33.382 16.0546 33.3786 16.0225C33.382 15.9904 33.3821 15.958 33.3791 15.9258L33.3782 15.9234C33.3662 15.8685 33.3454 15.8161 33.3167 15.7684C33.286 15.715 33.2459 15.6682 33.1985 15.6305C33.1864 15.6205 33.1759 15.6105 33.1629 15.6018C33.1145 15.5693 33.0608 15.5461 33.0045 15.5334L33.0006 15.5318C31.2545 15.1739 30.5889 14.2886 30.2613 11.8882C30.2599 11.8782 30.2537 11.8703 30.2517 11.8603C30.244 11.8268 30.2329 11.7942 30.2185 11.7631C30.1984 11.7046 30.1662 11.6515 30.1241 11.6074C30.0821 11.5634 30.0312 11.5296 29.9751 11.5084C29.9443 11.4928 29.9119 11.4808 29.8786 11.4727C29.8695 11.4709 29.8626 11.4647 29.8534 11.4634C29.8085 11.4688 29.7632 11.4688 29.7183 11.4634C29.7084 11.4649 29.7007 11.4715 29.6909 11.4734C29.631 11.4917 29.5733 11.5169 29.5187 11.5484C29.4959 11.5664 29.4746 11.5865 29.4552 11.6084C29.4314 11.6307 29.4099 11.6554 29.391 11.6823C29.3762 11.7078 29.3636 11.7347 29.3534 11.7627C29.3389 11.7939 29.3276 11.8267 29.3198 11.8605C29.3179 11.8705 29.3117 11.8782 29.3102 11.8883C28.9831 14.2887 28.3175 15.174 26.5709 15.5319L26.5686 15.5328C26.4777 15.5558 26.3946 15.6044 26.3284 15.6733C26.2623 15.7422 26.2156 15.8288 26.1936 15.9235L26.1926 15.9259C26.1896 15.9581 26.1898 15.9905 26.1931 16.0226C26.1898 16.0547 26.1896 16.0871 26.1926 16.1193L26.1936 16.1218C26.1959 16.1338 26.2029 16.1437 26.206 16.1554C26.2373 16.2604 26.298 16.3532 26.3804 16.422C26.4308 16.4548 26.4849 16.4809 26.5414 16.5C26.5522 16.503 26.5604 16.5108 26.5715 16.513C28.318 16.8709 28.9837 17.7562 29.3108 20.1571C29.3123 20.1679 29.3184 20.1764 29.3204 20.1871C29.3267 20.214 29.3352 20.2404 29.3458 20.2658C29.357 20.2982 29.3715 20.3293 29.389 20.3586C29.4033 20.3802 29.4192 20.4005 29.4366 20.4194C29.4588 20.4452 29.4836 20.4686 29.5106 20.489C29.5311 20.5041 29.5527 20.5175 29.5753 20.529C29.607 20.5451 29.6404 20.5575 29.6748 20.5657C29.6891 20.5719 29.7037 20.5773 29.7185 20.5819C29.7406 20.5851 29.7628 20.5867 29.785 20.5867H29.7856H29.7865H29.7871C29.8093 20.5867 29.8315 20.5851 29.8536 20.5819C29.9013 20.5643 29.949 20.5466 29.9968 20.529C30.0194 20.5175 30.041 20.5041 30.0615 20.489C30.1082 20.4522 30.1492 20.4082 30.1831 20.3586C30.2006 20.3293 30.2151 20.2982 30.2263 20.2658C30.2369 20.2404 30.2454 20.214 30.2517 20.1871C30.2538 20.1765 30.2598 20.168 30.2613 20.1571C30.5889 17.7562 31.2545 16.8709 33.0006 16.513C33.0118 16.5107 33.0198 16.503 33.0308 16.4999C33.0666 16.4895 33.1011 16.4747 33.1335 16.4557C33.1911 16.4268 33.2419 16.3849 33.282 16.333C33.3221 16.2811 33.3507 16.2205 33.3655 16.1557ZM29.7863 18.0022C29.503 17.1539 28.9243 16.4473 28.1647 16.0222C28.9242 15.5972 29.5029 14.8908 29.7863 14.0427C30.0698 14.8908 30.6484 15.5972 31.4078 16.0222C30.6483 16.4474 30.0697 17.154 29.7863 18.0022Z" fill="white" stroke="white" stroke-width="0.6"/>
</g>
<defs>
<clipPath id="clip0_61_619">
<rect width="24" height="24" fill="white" transform="translate(9.61353 11)"/>
</clipPath>
</defs>
</svg>
