<svg width="17" height="17" viewBox="0 0 17 17" fill="none" xmlns="http://www.w3.org/2000/svg">
<path d="M9.02466 4.17545L9.02467 4.17544C9.0229 4.17456 9.02315 4.17474 9.02626 4.1769C9.02982 4.17939 9.03715 4.18449 9.04949 4.19362C9.06888 4.20797 9.09537 4.2282 9.1284 4.25389C9.19435 4.30518 9.28468 4.37693 9.39302 4.464C9.60963 4.63805 9.89716 4.87242 10.2034 5.12484L10.2035 5.12497C11.8862 6.50619 12.7151 7.18719 13.1335 7.5387C13.3434 7.71496 13.4476 7.80641 13.5041 7.86107C13.5519 7.90727 13.5619 7.92335 13.5763 7.9463C13.5776 7.94841 13.579 7.95058 13.5804 7.95284L13.6649 7.89937M9.02466 4.17545L2.81412 10.9956C3.17718 10.674 3.72883 10.3474 4.2827 10.1249L4.28272 10.1249C5.26094 9.73201 6.40219 9.53302 7.66857 9.52527L7.66867 9.52527L8.16105 9.5227L8.19695 9.52251L8.22478 9.54521L8.32154 9.62415C8.32525 9.62707 8.32901 9.63 8.3328 9.63296C8.3733 9.66462 8.41727 9.699 8.45087 9.74549C8.49056 9.80043 8.51196 9.86513 8.52494 9.95224C8.54884 10.1127 8.54882 10.3904 8.54879 10.9201C8.54879 10.9403 8.54879 10.9609 8.54879 10.9819C8.54879 11.3136 8.55135 11.5781 8.55613 11.7676C8.55852 11.8625 8.56145 11.9378 8.56483 11.9931C8.56652 12.0208 8.56828 12.0427 8.57005 12.0591C8.57094 12.0673 8.57177 12.0737 8.5725 12.0783C8.57304 12.0817 8.57341 12.0835 8.57354 12.0841C8.57354 12.0841 8.57355 12.0841 8.57355 12.0841C8.62118 12.2477 8.81029 12.3547 8.97011 12.309L8.9726 12.3083C8.97151 12.3086 8.97634 12.3073 8.98957 12.3003C9.00196 12.2938 9.01854 12.2839 9.04018 12.2697C9.08348 12.2413 9.14258 12.1987 9.22188 12.1381C9.38026 12.0172 9.61366 11.8291 9.95218 11.5509L10.0157 11.6281L9.95201 11.551C10.2295 11.3219 10.6587 10.9696 11.1071 10.6014C11.4668 10.306 11.839 10.0005 12.155 9.74039L12.1553 9.74014C12.5115 9.44929 12.8446 9.17389 13.0939 8.96489C13.2186 8.86036 13.3221 8.77263 13.397 8.70797C13.4345 8.6756 13.4646 8.6493 13.4863 8.62969C13.4973 8.61987 13.5057 8.61205 13.5119 8.60617C13.5177 8.60069 13.5198 8.59845 13.5198 8.59847L13.5213 8.59674C13.674 8.42684 13.6998 8.14475 13.58 7.9522L13.6649 7.89937M9.02466 4.17545L9.02342 4.17481C8.94686 4.13518 8.84816 4.13705 8.7573 4.1781C8.6666 4.21906 8.59588 4.29374 8.57062 4.38261L8.57064 4.38261C8.57066 4.38254 8.57068 4.38251 8.57069 4.38251C8.5708 4.38253 8.56981 4.38785 8.56848 4.40212C8.56691 4.41887 8.56533 4.44209 8.5638 4.47171C8.56075 4.53077 8.55805 4.61197 8.55581 4.7111C8.55135 4.90918 8.54879 5.17637 8.54879 5.47595C8.54879 5.967 8.54817 6.22963 8.54131 6.38093C8.53788 6.45654 8.53273 6.50945 8.52393 6.55133C8.5145 6.59625 8.5014 6.62597 8.4867 6.65464C8.46714 6.69359 8.43667 6.7342 8.40559 6.76885C8.37409 6.80397 8.33671 6.83883 8.29996 6.86389L8.29999 6.86392L8.2976 6.86545C8.27171 6.88205 8.2451 6.89833 8.21313 6.91151C8.18054 6.92493 8.14626 6.93361 8.10429 6.94005C8.02461 6.95228 7.90298 6.95823 7.6893 6.96834L7.68908 6.96835C6.73289 7.01147 6.00369 7.18348 5.32152 7.52708L5.3214 7.52714C4.09119 8.14474 3.22437 9.32495 2.8246 10.9517L9.02466 4.17545ZM13.6649 7.89937C13.8085 8.13018 13.7778 8.46099 13.5957 8.66359M13.6649 7.89937C13.6638 7.89758 13.6627 7.89582 13.6616 7.89408C13.586 7.77417 13.5835 7.77016 10.267 5.04768C9.65409 4.54248 9.11555 4.10908 9.06939 4.086L13.5957 8.66359M13.5957 8.66359C13.5521 8.71488 12.9315 9.23546 12.2186 9.8176C11.9022 10.078 11.53 10.3836 11.1702 10.679L13.5957 8.66359ZM8.56325 3.06255L8.56359 3.06248L1.57856 13.5438C1.54266 13.4156 1.54266 12.7103 1.57856 12.2846L1.47889 12.2765C1.4789 12.2764 1.4789 12.2764 1.47891 12.2764C1.74554 9.0099 3.35049 6.77763 5.96659 6.08959C6.35094 5.98831 6.82889 5.90503 7.14631 5.88142L7.14692 5.88138C7.25675 5.87389 7.37764 5.86173 7.42147 5.85479L7.43071 5.08751L7.43071 5.08741C7.44087 4.30515 7.44509 4.21156 7.50236 4.03689L7.50251 4.03643C7.66184 3.55845 8.08354 3.16793 8.56325 3.06255ZM7.30378 10.6443C7.21303 10.6514 7.09528 10.661 6.97226 10.6712L13.311 10.1048L13.3746 10.182C13.3746 10.182 13.3745 10.1821 13.3744 10.1822C13.0614 10.4401 12.5075 10.8963 11.9485 11.3568C11.6738 11.583 11.3979 11.8103 11.1486 12.0156L11.1485 12.0157C10.7689 12.3274 10.4103 12.6199 10.1381 12.8397C10.0021 12.9496 9.88751 13.0415 9.80262 13.1085C9.72241 13.1719 9.66232 13.2183 9.63843 13.2333C9.49006 13.3274 9.29366 13.3906 9.09746 13.4202C8.90123 13.4498 8.69495 13.4474 8.5254 13.4019L8.52486 13.4017C8.05367 13.2722 7.67002 12.9068 7.50564 12.4384C7.4423 12.2599 7.44086 12.1871 7.43071 11.3858L7.43071 11.3857L7.42168 10.6357L7.41651 10.636C7.38762 10.638 7.34918 10.6408 7.30378 10.6443Z" fill="#1D0419" stroke="black" stroke-width="0.2"/>
</svg>
