<svg width="22" height="17" viewBox="0 0 22 17" fill="none" xmlns="http://www.w3.org/2000/svg">
<path d="M12.0795 0.0541401C11.379 0.208002 10.7555 0.782961 10.5206 1.48749C10.4397 1.73448 10.4316 1.8519 10.4154 3.099L10.3992 4.44327L10.2737 4.46351C10.2008 4.47566 9.99832 4.49591 9.82017 4.50805C9.33023 4.54449 8.58522 4.67406 7.98596 4.83197C3.93695 5.89686 1.43466 9.35067 1.01761 14.4605C0.960926 15.1327 0.960926 16.2461 1.01761 16.4486C1.07835 16.6713 1.20387 16.8252 1.39822 16.9183C1.6857 17.0559 1.98128 17.0155 2.19992 16.8049C2.36188 16.651 2.37808 16.6106 2.46716 16.1611C2.82752 14.3188 4.42283 12.8936 6.90488 12.2012C7.73088 11.9704 8.46375 11.8449 9.52054 11.7558C9.90924 11.7234 10.2656 11.6951 10.3141 11.6951H10.3992L10.4154 13.0393C10.4316 14.3188 10.4356 14.3998 10.5247 14.6508C10.7676 15.3432 11.3345 15.8817 12.0269 16.072C12.5087 16.2016 13.2375 16.0923 13.6586 15.825C13.7639 15.7603 14.8288 14.8978 16.0273 13.9139C17.2218 12.93 18.8049 11.6262 19.5418 11.0189C20.2828 10.4156 20.9752 9.81226 21.0886 9.68674C21.7324 8.96602 21.8781 7.89708 21.4611 7.00224C21.1938 6.43943 21.5664 6.7593 15.3714 1.67779C14.4036 0.884186 13.6627 0.305178 13.521 0.232296C13.0675 0.00555229 12.5856 -0.0551834 12.0795 0.0541401ZM12.8448 1.51583C12.9177 1.55227 13.768 2.23656 14.7357 3.03421C20.048 7.395 19.9751 7.33831 20.1006 7.53671C20.3274 7.90113 20.2788 8.42345 19.9913 8.74332C19.9225 8.8243 18.9426 9.64625 17.817 10.5654C16.6954 11.4886 15.1284 12.7721 14.3389 13.424C13.2699 14.3026 12.8569 14.6184 12.7314 14.6508C12.3913 14.748 12.0066 14.5253 11.9095 14.1852C11.8811 14.0799 11.8649 13.4523 11.8649 12.4036C11.8649 10.5856 11.869 10.6221 11.5653 10.3832L11.4114 10.2577L10.634 10.2617C8.65 10.2738 6.86844 10.5856 5.34601 11.197C4.45927 11.5533 3.58064 12.0797 3.02592 12.5858C2.87611 12.7235 2.74249 12.8328 2.73439 12.8207C2.72225 12.8126 2.76679 12.5858 2.83157 12.3186C3.47131 9.71508 4.86417 7.808 6.85629 6.80789C7.95762 6.25318 9.13183 5.97784 10.6583 5.90901C11.3426 5.87662 11.3831 5.87257 11.541 5.77135C11.6301 5.71061 11.7394 5.58914 11.7839 5.50006C11.8609 5.35025 11.8649 5.26522 11.8649 3.7104C11.8649 2.76293 11.8811 2.01791 11.9054 1.94098C12.0147 1.55632 12.5006 1.33768 12.8448 1.51583Z" fill="white"/>
</svg>
