<svg width="45" height="44" viewBox="0 0 45 44" fill="none" xmlns="http://www.w3.org/2000/svg">
<circle cx="22.6135" cy="22" r="21.5" stroke="#781069"/>
<path d="M12.6135 16C12.6135 13.7909 14.4044 12 16.6135 12H28.6135C30.8226 12 32.6135 13.7909 32.6135 16V28C32.6135 30.2091 30.8226 32 28.6135 32H16.6135C14.4044 32 12.6135 30.2091 12.6135 28V16Z" stroke="#781069" stroke-width="1.5" stroke-linejoin="round"/>
<path d="M20.6135 21C21.7181 21 22.6135 20.1046 22.6135 19C22.6135 17.8954 21.7181 17 20.6135 17C19.509 17 18.6135 17.8954 18.6135 19C18.6135 20.1046 19.509 21 20.6135 21Z" stroke="#781069" stroke-width="1.5" stroke-linejoin="round"/>
<path d="M20.6135 23C18.4044 23 16.6135 24.7909 16.6135 27H24.6135C24.6135 24.7909 22.8226 23 20.6135 23Z" stroke="#781069" stroke-width="1.5" stroke-linejoin="round"/>
<path d="M28.1135 20V23M26.6135 21.5H29.6135" stroke="#781069" stroke-width="1.5" stroke-linecap="round" stroke-linejoin="round"/>
</svg>
