<svg width="31" height="30" viewBox="0 0 31 30" fill="none" xmlns="http://www.w3.org/2000/svg">
<path d="M15.2072 13.995C15.1487 13.9892 15.0785 13.9892 15.0141 13.995C13.6213 13.9482 12.5153 12.807 12.5153 11.4025C12.5153 9.96877 13.674 8.8042 15.1136 8.8042C16.5474 8.8042 17.7119 9.96877 17.7119 11.4025C17.7061 12.807 16.6 13.9482 15.2072 13.995Z" stroke="#1D0419" stroke-width="1.5" stroke-linecap="round" stroke-linejoin="round"/>
<path d="M12.1846 16.9529C10.7684 17.9009 10.7684 19.4459 12.1846 20.388C13.7939 21.4648 16.4332 21.4648 18.0426 20.388C19.4588 19.44 19.4588 17.895 18.0426 16.9529C16.4391 15.8819 13.7998 15.8819 12.1846 16.9529Z" stroke="#1D0419" stroke-width="1.5" stroke-linecap="round" stroke-linejoin="round"/>
<path d="M16.1659 5.12412C15.4921 4.84501 14.735 4.84501 14.0611 5.12412L8.87437 7.27255C8.20054 7.55166 7.66518 8.08701 7.38608 8.76084L5.23764 13.9476C4.95853 14.6214 4.95853 15.3786 5.23764 16.0524L7.38608 21.2392C7.66518 21.913 8.20054 22.4483 8.87437 22.7274L14.0611 24.8759C14.735 25.155 15.4921 25.155 16.1659 24.8759L21.3527 22.7274C22.0265 22.4483 22.5619 21.913 22.841 21.2392L24.9894 16.0524C25.2685 15.3786 25.2685 14.6214 24.9894 13.9476L22.841 8.76084C22.5619 8.08701 22.0265 7.55166 21.3527 7.27255L16.1659 5.12412Z" stroke="#1D0419" stroke-width="1.5" stroke-linecap="round" stroke-linejoin="round"/>
</svg>
